<svg id="svg" version="1.1" xmlns="http://www.w3.org/2000/svg" xmlns:xlink="http://www.w3.org/1999/xlink" width="400" height="222.22222222222223" viewBox="0, 0, 400,222.22222222222223"><g id="svgg"><path id="path0" d="M268.667 86.362 C 263.884 86.773,260.177 89.452,259.139 93.248 C 258.481 95.654,258.946 99.482,260.122 101.333 C 261.263 103.130,264.416 104.985,267.667 105.772 C 268.278 105.920,268.978 106.119,269.222 106.215 C 269.467 106.311,270.267 106.563,271.000 106.776 C 276.028 108.238,277.776 110.683,275.583 113.190 C 274.549 114.372,269.917 115.117,269.042 114.242 C 268.909 114.109,268.635 114.000,268.434 114.000 C 268.090 114.000,266.965 113.547,266.222 113.109 C 266.039 113.000,265.497 112.699,265.018 112.440 C 264.538 112.180,263.555 111.513,262.833 110.957 C 262.111 110.401,261.446 110.034,261.355 110.140 C 261.264 110.246,260.852 110.783,260.439 111.333 C 260.026 111.883,259.194 112.913,258.590 113.622 L 257.493 114.910 258.135 115.589 C 259.471 117.000,262.859 119.002,265.172 119.746 C 273.898 122.552,282.280 119.365,283.368 112.827 C 284.377 106.764,281.133 102.415,274.444 100.866 C 273.772 100.710,273.122 100.519,273.000 100.440 C 272.878 100.361,272.178 100.163,271.444 100.000 C 270.711 99.837,270.011 99.638,269.889 99.558 C 269.767 99.479,269.249 99.282,268.738 99.121 C 265.934 98.237,265.166 94.937,267.359 93.193 C 268.567 92.231,272.545 92.046,274.188 92.875 C 274.390 92.977,275.106 93.292,275.778 93.575 C 276.450 93.859,277.496 94.413,278.103 94.807 C 279.413 95.659,279.194 95.754,280.548 93.741 C 281.151 92.845,281.925 91.745,282.269 91.298 L 282.894 90.486 282.043 89.812 C 279.123 87.499,273.203 85.972,268.667 86.362 M20.828 86.912 C 15.674 88.350,11.513 92.242,9.331 97.667 C 8.225 100.416,8.280 106.458,9.442 109.889 C 11.687 116.513,17.885 120.559,25.778 120.552 C 30.997 120.548,33.076 119.812,37.111 116.540 C 39.318 114.751,39.318 114.747,36.787 112.229 L 34.672 110.125 33.725 111.026 C 32.752 111.951,30.751 113.333,30.384 113.333 C 30.271 113.333,29.863 113.472,29.478 113.641 C 27.423 114.546,23.757 114.543,22.019 113.636 C 21.703 113.471,21.365 113.335,21.269 113.335 C 20.466 113.328,16.889 109.769,16.889 108.977 C 16.889 108.915,16.672 108.395,16.407 107.821 C 15.807 106.523,15.565 102.381,15.992 100.719 C 18.003 92.903,27.895 90.423,34.060 96.189 L 35.154 97.212 35.939 96.328 C 36.370 95.842,37.093 95.039,37.545 94.543 C 39.093 92.846,39.434 92.278,39.126 91.907 C 38.653 91.337,35.929 89.201,35.111 88.759 C 34.683 88.528,34.183 88.225,34.000 88.087 C 33.626 87.804,32.088 87.281,30.156 86.779 C 28.241 86.282,22.810 86.359,20.828 86.912 M230.653 86.893 C 223.054 89.055,218.404 95.312,218.354 103.444 C 218.319 109.117,219.337 111.734,223.092 115.628 C 225.059 117.667,228.361 119.778,229.584 119.778 C 229.798 119.778,230.027 119.865,230.093 119.971 C 230.504 120.635,238.377 120.784,240.613 120.169 C 249.369 117.760,254.626 108.776,252.644 99.607 C 251.888 96.112,249.816 92.538,247.387 90.538 C 246.368 89.699,244.273 88.222,244.101 88.222 C 243.991 88.222,243.569 88.046,241.444 87.114 C 239.877 86.427,232.801 86.282,230.653 86.893 M329.859 86.875 C 316.634 90.583,312.976 107.810,323.506 116.795 C 325.156 118.202,327.890 119.778,328.683 119.778 C 328.904 119.778,329.140 119.867,329.208 119.977 C 329.638 120.673,337.087 120.853,339.447 120.224 C 353.603 116.454,356.992 98.080,345.122 89.456 C 341.329 86.701,334.562 85.556,329.859 86.875 M45.556 103.667 L 45.556 120.222 49.111 120.222 L 52.667 120.222 52.667 103.667 L 52.667 87.111 49.111 87.111 L 45.556 87.111 45.556 103.667 M58.370 87.259 C 58.289 87.341,58.222 88.689,58.222 90.255 L 58.222 93.102 62.944 93.162 L 67.667 93.222 67.724 106.722 L 67.781 120.222 71.224 120.222 L 74.667 120.222 74.667 106.802 C 74.667 94.769,74.703 93.367,75.018 93.246 C 75.212 93.172,77.362 93.111,79.796 93.111 L 84.222 93.111 84.222 90.111 L 84.222 87.111 71.370 87.111 C 64.302 87.111,58.452 87.178,58.370 87.259 M88.222 87.324 C 88.222 87.440,88.522 88.045,88.889 88.667 C 89.256 89.289,89.556 89.852,89.556 89.920 C 89.556 89.987,89.740 90.308,89.966 90.632 C 90.192 90.957,90.680 91.772,91.051 92.444 C 91.712 93.641,92.567 95.153,94.414 98.389 C 94.920 99.275,95.747 100.725,96.253 101.611 C 96.758 102.497,97.544 103.884,97.998 104.694 C 98.452 105.503,98.988 106.400,99.190 106.687 C 99.509 107.144,99.556 108.035,99.556 113.716 L 99.556 120.222 103.000 120.222 L 106.444 120.222 106.444 113.710 L 106.444 107.198 107.111 106.147 C 107.478 105.569,107.778 105.054,107.778 105.002 C 107.778 104.951,108.093 104.379,108.479 103.732 C 108.864 103.085,109.528 101.906,109.955 101.111 C 110.382 100.317,110.846 99.517,110.987 99.333 C 111.128 99.150,111.528 98.450,111.876 97.778 C 112.224 97.106,112.624 96.406,112.765 96.222 C 112.906 96.039,113.306 95.339,113.655 94.667 C 114.003 93.994,114.609 92.894,115.002 92.222 C 115.394 91.550,116.124 90.300,116.624 89.444 C 118.122 86.879,118.369 87.111,114.151 87.111 L 110.476 87.111 109.794 88.122 C 109.418 88.678,109.111 89.180,109.111 89.237 C 109.111 89.295,108.711 90.000,108.222 90.805 C 107.733 91.609,107.333 92.306,107.333 92.353 C 107.333 92.400,106.820 93.315,106.192 94.386 C 102.808 100.164,102.922 100.051,102.051 98.444 C 101.497 97.422,100.278 95.291,98.999 93.111 C 98.604 92.439,98.032 91.439,97.727 90.889 C 97.422 90.339,96.804 89.264,96.353 88.500 L 95.534 87.111 91.878 87.111 C 89.701 87.111,88.222 87.197,88.222 87.324 M186.889 103.643 L 186.889 120.222 195.878 120.222 C 205.367 120.222,206.363 120.140,208.431 119.189 C 215.307 116.025,214.639 105.002,207.490 103.660 C 207.037 103.576,206.667 103.433,206.667 103.343 C 206.667 103.096,207.444 102.444,207.738 102.444 C 208.300 102.444,210.799 99.673,211.067 98.752 C 212.358 94.320,210.088 89.397,206.160 88.109 C 205.888 88.020,205.217 87.800,204.667 87.620 C 203.888 87.366,201.807 87.268,195.278 87.179 L 186.889 87.064 186.889 103.643 M288.222 90.107 L 288.222 93.102 292.833 93.162 L 297.444 93.222 297.502 106.722 L 297.559 120.222 301.111 120.222 L 304.663 120.222 304.721 106.722 L 304.778 93.222 309.389 93.162 L 314.000 93.102 314.000 90.107 L 314.000 87.111 301.111 87.111 L 288.222 87.111 288.222 90.107 M359.333 103.667 L 359.333 120.222 362.887 120.222 L 366.440 120.222 366.498 109.963 C 366.538 102.736,366.628 99.680,366.800 99.622 C 366.998 99.556,369.456 102.611,372.111 106.224 C 372.356 106.556,373.956 108.658,375.667 110.894 C 377.378 113.131,379.028 115.291,379.333 115.696 C 379.639 116.100,380.534 117.284,381.323 118.327 L 382.758 120.222 386.379 120.222 L 390.000 120.222 390.000 103.661 L 390.000 87.100 386.611 87.161 L 383.222 87.222 383.111 97.711 C 383.027 105.684,382.933 108.267,382.722 108.478 C 382.381 108.819,382.703 109.183,378.975 104.242 C 377.278 101.992,375.616 99.792,375.283 99.353 C 374.950 98.914,374.423 98.206,374.111 97.778 C 373.353 96.737,372.766 95.966,369.889 92.228 C 368.544 90.482,367.301 88.841,367.125 88.582 C 366.100 87.074,366.215 87.111,362.628 87.111 L 359.333 87.111 359.333 103.667 M163.444 88.590 C 161.708 89.503,160.821 90.925,160.086 93.974 C 159.715 95.512,159.641 95.634,158.901 95.924 C 158.467 96.094,157.937 96.331,157.725 96.450 C 157.513 96.569,157.192 96.667,157.011 96.667 C 156.693 96.667,156.222 97.306,156.222 97.736 C 156.222 97.852,156.820 97.990,157.551 98.043 C 159.275 98.167,159.225 98.047,158.661 100.704 C 158.393 101.967,158.095 103.400,158.000 103.889 C 157.904 104.378,157.504 106.278,157.111 108.111 C 156.718 109.944,156.319 111.844,156.224 112.333 C 155.107 118.117,154.336 119.333,151.786 119.333 L 150.667 119.333 150.667 120.400 C 150.667 121.789,150.917 122.000,152.567 122.000 C 155.194 122.000,157.393 120.408,158.091 118.000 C 158.494 116.612,158.694 115.802,158.915 114.667 C 159.386 112.241,159.513 111.632,160.000 109.444 C 160.493 107.229,160.637 106.539,161.084 104.222 C 162.281 98.016,162.290 98.000,164.597 98.000 C 166.361 98.000,166.326 98.025,166.523 96.611 L 166.639 95.778 165.013 95.778 C 162.888 95.778,162.749 95.610,163.350 93.780 C 164.197 91.200,165.107 90.508,167.323 90.759 C 168.694 90.914,168.629 90.962,169.283 89.317 C 169.633 88.437,169.056 88.221,166.392 88.231 C 164.760 88.237,163.922 88.340,163.444 88.590 M237.884 92.665 C 241.612 93.664,243.888 95.801,245.340 99.667 C 246.887 103.785,245.608 109.211,242.407 112.116 C 241.577 112.869,240.314 113.778,240.098 113.778 C 240.020 113.778,239.641 113.915,239.256 114.083 C 234.058 116.350,227.945 113.260,225.971 107.367 C 225.408 105.687,225.254 101.101,225.744 100.612 C 225.885 100.471,226.003 100.151,226.008 99.900 C 226.035 98.260,230.123 93.333,231.457 93.333 C 231.536 93.333,231.915 93.189,232.300 93.013 C 234.105 92.189,235.728 92.088,237.884 92.665 M336.477 92.562 C 346.724 94.718,348.365 108.827,338.960 113.917 C 331.521 117.944,322.364 109.050,325.001 100.359 C 326.166 96.518,329.946 92.733,332.698 92.651 C 332.986 92.642,333.422 92.549,333.667 92.444 C 334.310 92.168,334.675 92.183,336.477 92.562 M202.222 93.486 C 205.325 94.881,204.965 99.366,201.668 100.386 C 200.230 100.831,194.450 101.033,194.205 100.647 C 193.978 100.287,193.926 93.786,194.146 93.212 C 194.372 92.623,200.786 92.840,202.222 93.486 M144.556 95.698 C 137.315 96.811,134.203 111.976,140.912 113.450 C 141.263 113.527,141.608 113.682,141.677 113.795 C 141.895 114.148,145.386 114.030,146.572 113.630 C 150.535 112.292,152.986 108.103,152.986 102.667 C 152.987 97.562,149.762 94.897,144.556 95.698 M148.219 98.887 C 150.825 100.742,149.473 108.725,146.205 110.789 C 143.148 112.719,140.530 110.887,140.585 106.858 C 140.669 100.735,144.782 96.440,148.219 98.887 M201.275 106.321 C 204.928 106.877,206.044 107.829,206.044 110.389 C 206.044 112.445,205.273 113.530,203.333 114.201 C 202.097 114.629,194.453 114.815,194.205 114.424 C 193.892 113.929,193.947 106.586,194.267 106.267 C 194.637 105.897,198.697 105.928,201.275 106.321 " stroke="none" fill="#0c1c2c" fill-rule="evenodd"></path><path id="path1" d="M185.333 131.956 C 185.333 134.390,185.415 135.548,185.600 135.733 C 185.807 135.940,208.968 136.000,288.489 136.000 L 391.111 136.000 391.111 134.822 C 391.111 134.174,391.231 133.524,391.378 133.378 C 391.585 133.170,391.585 133.052,391.378 132.844 C 391.231 132.698,391.111 132.218,391.111 131.778 C 391.111 131.338,391.231 130.858,391.378 130.711 C 391.585 130.504,391.585 130.385,391.378 130.178 C 391.231 130.031,391.111 129.581,391.111 129.178 L 391.111 128.444 288.222 128.444 L 185.333 128.444 185.333 131.956 " stroke="none" fill="#fc5444" fill-rule="evenodd"></path><path id="path2" d="M0.000 111.111 L 0.000 222.222 200.000 222.222 L 400.000 222.222 400.000 111.111 L 400.000 0.000 200.000 0.000 L 0.000 0.000 0.000 111.111 M29.111 86.093 C 32.657 86.746,34.767 87.711,37.596 89.975 C 40.319 92.153,40.318 92.213,37.470 95.273 C 36.849 95.940,36.139 96.775,35.893 97.128 C 35.303 97.973,35.351 97.988,33.616 96.409 C 26.544 89.975,16.326 94.267,16.337 103.667 C 16.349 113.192,26.261 117.290,33.370 110.708 L 34.696 109.481 37.132 111.907 C 40.007 114.770,40.001 114.734,37.889 116.517 C 32.488 121.075,25.192 122.541,19.444 120.224 C 19.200 120.125,18.650 119.917,18.222 119.761 C 13.790 118.146,9.584 113.008,8.433 107.802 C 6.059 97.069,12.616 87.583,23.556 85.923 C 24.855 85.725,27.564 85.809,29.111 86.093 M239.026 86.105 C 255.169 88.961,258.897 110.231,244.778 118.928 C 239.559 122.143,231.018 121.899,225.630 118.382 C 212.846 110.037,216.338 89.647,231.111 86.379 C 234.200 85.696,236.301 85.623,239.026 86.105 M274.114 86.101 C 277.281 86.661,280.798 88.158,282.667 89.741 L 283.444 90.400 282.981 91.033 C 282.727 91.382,281.940 92.517,281.233 93.556 C 279.333 96.348,279.638 96.223,277.634 95.030 C 276.022 94.071,275.383 93.791,273.318 93.139 C 269.868 92.051,266.199 93.638,266.519 96.080 C 266.737 97.751,268.179 98.712,271.889 99.660 C 280.905 101.964,284.000 104.766,284.000 110.622 C 284.000 119.283,275.502 123.400,264.554 120.044 C 262.764 119.496,259.093 117.245,257.782 115.894 C 256.873 114.956,256.912 114.847,259.000 112.444 C 259.797 111.528,260.563 110.555,260.702 110.282 C 261.143 109.423,261.670 109.460,262.905 110.436 C 268.069 114.518,273.890 115.340,275.616 112.231 C 276.795 110.108,275.126 108.387,270.667 107.127 C 261.304 104.481,259.113 102.764,258.460 97.561 C 257.704 91.545,260.456 87.973,267.333 86.042 C 268.502 85.713,272.102 85.745,274.114 86.101 M338.111 86.115 C 344.822 87.388,350.110 91.819,351.764 97.556 C 351.922 98.106,352.147 98.856,352.264 99.222 C 354.102 104.991,351.376 113.206,346.271 117.282 C 331.544 129.041,310.705 113.164,318.443 96.081 C 319.959 92.733,325.007 87.556,326.754 87.556 C 326.831 87.556,327.318 87.363,327.836 87.127 C 328.680 86.743,330.952 86.149,332.444 85.923 C 333.811 85.715,336.481 85.806,338.111 86.115 M52.971 87.167 C 53.146 87.820,53.146 119.736,52.971 120.389 C 52.839 120.882,52.787 120.889,49.111 120.889 C 45.435 120.889,45.383 120.882,45.251 120.389 C 45.076 119.736,45.076 87.820,45.251 87.167 C 45.383 86.673,45.435 86.667,49.111 86.667 C 52.787 86.667,52.839 86.673,52.971 87.167 M84.889 89.974 C 84.889 93.949,85.492 93.548,79.500 93.553 L 75.111 93.556 75.111 107.222 L 75.111 120.889 71.359 120.889 C 67.656 120.889,67.606 120.882,67.473 120.389 C 67.400 120.114,67.338 113.964,67.336 106.722 L 67.333 93.556 63.056 93.553 C 57.191 93.548,57.778 93.946,57.778 89.974 L 57.778 86.667 71.333 86.667 L 84.889 86.667 84.889 89.974 M97.344 89.333 C 98.154 90.739,99.601 93.239,100.561 94.889 C 101.520 96.539,102.411 98.113,102.541 98.387 C 102.893 99.128,102.997 99.044,104.058 97.167 C 104.593 96.219,105.815 94.094,106.773 92.444 C 107.731 90.794,108.762 88.994,109.064 88.444 C 110.094 86.569,109.802 86.667,114.383 86.667 L 118.474 86.667 118.330 87.167 C 118.250 87.442,117.993 87.938,117.759 88.269 C 117.525 88.600,117.333 88.919,117.333 88.977 C 117.333 89.036,116.518 90.515,115.522 92.264 C 114.526 94.013,113.514 95.794,113.273 96.222 C 113.032 96.650,111.522 99.300,109.917 102.111 L 107.000 107.222 106.889 114.000 L 106.778 120.778 102.944 120.839 L 99.111 120.899 99.111 114.226 L 99.111 107.553 97.776 105.165 C 97.041 103.852,96.347 102.628,96.232 102.444 C 96.118 102.261,95.344 100.914,94.512 99.451 C 93.680 97.989,92.900 96.627,92.778 96.426 C 92.656 96.225,92.338 95.665,92.072 95.182 C 91.806 94.699,90.681 92.719,89.572 90.782 C 86.961 86.221,86.737 86.645,91.714 86.717 L 95.873 86.778 97.344 89.333 M203.378 86.905 C 208.687 87.978,211.020 90.087,211.786 94.506 C 212.366 97.844,211.155 100.769,208.494 102.460 L 207.543 103.064 208.949 103.721 C 215.851 106.951,215.257 117.075,208.000 119.881 C 205.926 120.683,203.337 120.881,194.859 120.885 L 186.719 120.889 186.585 120.389 C 186.409 119.736,186.409 87.820,186.585 87.167 L 186.719 86.667 194.459 86.667 C 199.081 86.667,202.675 86.763,203.378 86.905 M314.667 89.974 C 314.667 93.946,315.253 93.548,309.389 93.553 L 305.111 93.556 305.108 106.722 C 305.106 113.964,305.045 120.114,304.971 120.389 C 304.839 120.882,304.787 120.889,301.111 120.889 C 297.435 120.889,297.383 120.882,297.251 120.389 C 297.177 120.114,297.116 113.964,297.114 106.722 L 297.111 93.556 292.833 93.553 C 286.969 93.548,287.556 93.946,287.556 89.974 L 287.556 86.667 301.111 86.667 L 314.667 86.667 314.667 89.974 M369.386 90.778 C 371.070 92.978,372.672 95.093,372.946 95.479 C 373.480 96.230,379.651 104.367,381.321 106.523 C 382.671 108.264,382.618 108.653,382.645 96.722 L 382.667 86.667 386.557 86.667 L 390.447 86.667 390.390 103.722 L 390.333 120.778 386.528 120.838 L 382.722 120.899 380.972 118.620 C 379.236 116.359,375.257 111.116,369.825 103.931 L 367.000 100.196 366.881 110.487 C 366.816 116.147,366.741 120.803,366.714 120.833 C 366.362 121.243,359.146 120.826,359.029 120.389 C 358.853 119.732,358.854 87.818,359.030 87.161 C 359.165 86.659,359.186 86.656,362.744 86.717 L 366.323 86.778 369.386 90.778 M169.056 88.005 C 169.933 88.322,169.980 88.789,169.299 90.426 C 168.931 91.312,168.739 91.542,168.466 91.424 C 166.408 90.539,164.619 91.356,163.904 93.508 C 163.342 95.202,163.452 95.333,165.437 95.333 C 167.319 95.333,167.263 95.262,166.861 97.156 C 166.550 98.615,166.481 98.659,164.494 98.663 C 162.952 98.667,162.868 98.694,162.654 99.255 C 162.434 99.834,161.058 106.259,160.044 111.444 C 158.206 120.842,156.518 123.033,151.631 122.363 C 150.227 122.170,150.222 122.163,150.222 120.295 L 150.222 118.615 151.428 118.766 C 153.478 119.022,154.707 117.799,155.212 115.000 C 155.467 113.584,155.695 112.486,156.228 110.111 C 156.502 108.889,156.801 107.489,156.894 107.000 C 156.986 106.511,157.383 104.611,157.777 102.778 C 158.170 100.944,158.506 99.294,158.524 99.111 C 158.548 98.857,158.255 98.762,157.289 98.711 C 154.399 98.560,155.394 96.746,159.168 95.286 C 159.260 95.251,159.491 94.572,159.681 93.777 C 160.912 88.645,164.577 86.388,169.056 88.005 M233.333 93.040 C 222.131 96.950,224.143 114.257,235.800 114.257 C 244.622 114.257,248.843 102.324,242.366 95.690 C 240.184 93.456,235.816 92.174,233.333 93.040 M332.325 93.188 C 324.957 95.290,322.608 105.543,328.160 111.367 C 335.419 118.980,347.451 110.611,344.230 100.190 C 342.588 94.877,337.302 91.769,332.325 93.188 M194.444 96.889 L 194.444 100.444 196.389 100.438 C 202.326 100.417,203.957 99.517,203.731 96.386 C 203.559 94.020,202.102 93.343,197.167 93.337 L 194.444 93.333 194.444 96.889 M148.624 95.370 C 156.166 97.244,154.512 112.029,146.527 114.109 C 140.682 115.632,136.763 112.626,136.823 106.667 C 136.901 98.893,142.238 93.784,148.624 95.370 M144.714 98.991 C 141.113 100.979,139.553 108.755,142.383 110.608 C 143.894 111.597,146.325 110.708,147.476 108.744 C 150.682 103.274,148.826 96.721,144.714 98.991 M194.444 110.444 L 194.444 114.222 197.278 114.215 C 203.805 114.198,205.678 113.325,205.634 110.318 C 205.593 107.482,203.882 106.682,197.833 106.672 L 194.444 106.667 194.444 110.444 M391.111 129.178 C 391.111 129.581,391.231 130.031,391.378 130.178 C 391.585 130.385,391.585 130.504,391.378 130.711 C 391.231 130.858,391.111 131.338,391.111 131.778 C 391.111 132.218,391.231 132.698,391.378 132.844 C 391.585 133.052,391.585 133.170,391.378 133.378 C 391.231 133.524,391.111 134.174,391.111 134.822 L 391.111 136.000 288.489 136.000 C 208.968 136.000,185.807 135.940,185.600 135.733 C 185.415 135.548,185.333 134.390,185.333 131.956 L 185.333 128.444 288.222 128.444 L 391.111 128.444 391.111 129.178 " stroke="none" fill="#fcfcfc" fill-rule="evenodd"></path><path id="path3" d="M268.778 86.135 C 267.512 86.253,265.482 86.705,265.233 86.925 C 265.117 87.027,264.858 87.111,264.657 87.111 C 262.865 87.111,259.641 90.556,258.914 93.248 C 257.388 98.897,260.013 103.387,266.111 105.558 C 267.288 105.977,268.177 106.222,268.519 106.222 C 268.726 106.222,269.069 106.310,269.281 106.418 C 269.493 106.526,270.641 106.925,271.832 107.305 C 274.986 108.310,275.671 108.849,276.111 110.675 C 276.384 111.811,275.450 113.266,274.003 113.958 C 273.112 114.384,269.448 114.426,269.037 114.015 C 268.907 113.884,268.629 113.778,268.419 113.778 C 267.579 113.778,263.920 111.670,262.556 110.400 C 262.189 110.059,261.789 109.779,261.667 109.779 C 261.442 109.778,259.556 111.857,259.556 112.106 C 259.556 112.181,259.181 112.645,258.722 113.139 C 256.936 115.063,256.945 115.144,259.111 116.754 C 266.056 121.915,276.219 122.447,280.778 117.889 C 283.274 115.392,283.965 113.429,283.687 109.615 C 283.395 105.610,280.907 102.816,276.111 101.109 C 274.887 100.673,274.037 100.444,273.640 100.444 C 273.398 100.444,273.105 100.363,272.989 100.263 C 272.873 100.163,272.228 99.956,271.556 99.803 C 270.388 99.537,269.682 99.293,268.836 98.863 C 268.624 98.755,268.318 98.667,268.156 98.667 C 267.408 98.667,266.222 96.860,266.222 95.721 C 266.222 93.143,271.044 91.571,274.219 93.114 C 274.404 93.204,274.990 93.490,275.521 93.750 C 276.052 94.010,276.579 94.222,276.691 94.222 C 276.804 94.222,277.454 94.593,278.136 95.046 C 279.231 95.773,279.400 95.826,279.582 95.501 C 279.695 95.299,279.935 94.985,280.116 94.805 C 280.297 94.624,280.444 94.390,280.444 94.285 C 280.444 94.180,280.740 93.748,281.102 93.325 C 281.464 92.902,281.764 92.439,281.769 92.296 C 281.774 92.154,281.856 92.004,281.952 91.963 C 282.487 91.737,283.132 90.434,282.849 90.156 C 282.331 89.648,280.589 88.554,279.444 88.019 C 277.761 87.231,277.711 87.215,274.778 86.479 C 273.758 86.223,270.094 86.013,268.778 86.135 M20.778 86.695 C 17.011 87.722,10.700 92.516,10.671 94.370 C 10.668 94.513,10.592 94.663,10.500 94.704 C 10.355 94.768,9.636 96.294,9.103 97.667 C 7.847 100.901,8.100 107.808,9.581 110.719 C 9.689 110.931,9.778 111.211,9.778 111.340 C 9.778 112.250,14.496 117.778,15.273 117.778 C 15.428 117.778,15.556 117.869,15.556 117.981 C 15.556 118.282,19.017 119.923,20.556 120.351 C 24.480 121.445,31.390 120.783,33.812 119.081 C 34.137 118.853,34.487 118.666,34.590 118.666 C 35.254 118.662,39.111 115.205,39.111 114.613 C 39.111 114.074,35.165 110.000,34.643 110.000 C 34.429 110.000,33.972 110.333,33.627 110.741 C 33.060 111.411,31.108 112.889,30.791 112.889 C 30.720 112.889,30.238 113.077,29.720 113.308 C 25.079 115.372,19.332 113.318,17.128 108.807 C 13.452 101.280,18.220 93.255,26.353 93.283 C 28.222 93.289,29.776 93.588,30.322 94.045 C 30.438 94.143,30.670 94.222,30.838 94.222 C 31.276 94.222,33.085 95.504,34.038 96.490 C 35.028 97.514,35.285 97.531,36.000 96.626 C 36.306 96.240,36.831 95.648,37.167 95.312 C 37.503 94.976,37.778 94.656,37.778 94.600 C 37.778 94.545,38.178 94.075,38.667 93.556 C 39.817 92.334,39.809 92.290,38.131 90.751 C 35.768 88.584,33.278 87.285,29.941 86.478 C 28.214 86.061,22.617 86.193,20.778 86.695 M230.700 86.658 C 229.924 86.879,229.049 87.171,228.755 87.308 C 228.462 87.444,227.947 87.678,227.611 87.828 C 225.403 88.812,221.522 92.203,220.667 93.896 C 220.484 94.259,220.279 94.606,220.211 94.667 C 220.143 94.728,219.925 95.129,219.725 95.559 C 217.416 100.529,217.448 106.830,219.809 111.667 C 221.260 114.640,224.692 117.978,227.667 119.309 C 228.033 119.473,228.507 119.696,228.719 119.804 C 228.931 119.912,229.301 120.000,229.539 120.000 C 229.778 120.000,230.027 120.087,230.093 120.193 C 230.519 120.882,238.365 121.001,240.769 120.355 C 242.168 119.979,245.463 118.460,245.766 118.052 C 245.834 117.961,246.271 117.601,246.739 117.253 C 247.820 116.446,248.890 115.376,249.697 114.294 C 250.046 113.827,250.381 113.394,250.443 113.333 C 250.695 113.084,251.859 110.851,252.238 109.889 C 252.418 109.434,252.714 108.128,253.110 106.045 C 254.643 97.975,249.966 90.288,241.444 86.875 C 239.784 86.210,232.770 86.068,230.700 86.658 M275.556 86.913 C 277.689 87.428,280.772 88.805,282.043 89.812 L 282.894 90.486 282.269 91.298 C 281.925 91.745,281.151 92.845,280.548 93.741 C 279.194 95.754,279.413 95.659,278.103 94.807 C 277.496 94.413,276.450 93.859,275.778 93.575 C 275.106 93.292,274.390 92.977,274.188 92.875 C 272.545 92.046,268.567 92.231,267.359 93.193 C 265.166 94.937,265.934 98.237,268.738 99.121 C 269.249 99.282,269.767 99.479,269.889 99.558 C 270.011 99.638,270.711 99.837,271.444 100.000 C 272.178 100.163,272.878 100.361,273.000 100.440 C 273.122 100.519,273.772 100.710,274.444 100.866 C 281.133 102.415,284.377 106.764,283.368 112.827 C 282.280 119.365,273.898 122.552,265.172 119.746 C 262.859 119.002,259.471 117.000,258.135 115.589 L 257.493 114.910 258.590 113.622 C 259.194 112.913,260.026 111.883,260.439 111.333 C 260.852 110.783,261.264 110.246,261.355 110.140 C 261.446 110.034,262.111 110.401,262.833 110.957 C 263.555 111.513,264.538 112.180,265.018 112.440 C 265.497 112.699,266.039 113.000,266.222 113.109 C 266.965 113.547,268.090 114.000,268.434 114.000 C 268.635 114.000,268.909 114.109,269.042 114.242 C 269.917 115.117,274.549 114.372,275.583 113.190 C 277.776 110.683,276.028 108.238,271.000 106.776 C 270.267 106.563,269.467 106.311,269.222 106.215 C 268.978 106.119,268.278 105.920,267.667 105.772 C 260.759 104.100,257.486 99.293,259.139 93.248 C 260.671 87.647,267.564 84.987,275.556 86.913 M329.811 86.665 C 329.035 86.882,328.160 87.171,327.866 87.308 C 327.573 87.444,327.058 87.678,326.722 87.827 C 323.092 89.442,319.120 93.957,318.066 97.667 C 317.410 99.973,317.333 100.591,317.333 103.556 C 317.333 106.497,317.423 107.240,318.033 109.333 C 318.509 110.968,320.159 113.958,320.709 114.185 C 320.808 114.226,320.889 114.356,320.889 114.474 C 320.889 114.697,322.998 116.889,323.214 116.889 C 323.282 116.889,323.626 117.165,323.979 117.502 C 324.332 117.839,325.006 118.322,325.477 118.574 C 327.940 119.895,328.174 120.000,328.651 120.000 C 328.889 120.000,329.140 120.089,329.208 120.199 C 329.398 120.507,330.939 120.688,334.412 120.810 C 346.639 121.240,355.109 110.414,351.838 98.540 C 351.400 96.952,350.275 94.396,349.953 94.259 C 349.856 94.219,349.778 94.052,349.778 93.889 C 349.778 93.514,346.370 90.009,345.333 89.318 C 344.906 89.033,344.506 88.740,344.444 88.667 C 344.041 88.187,341.314 87.103,339.111 86.547 C 337.283 86.085,331.627 86.157,329.811 86.665 M30.156 86.779 C 32.088 87.281,33.626 87.804,34.000 88.087 C 34.183 88.225,34.683 88.528,35.111 88.759 C 35.929 89.201,38.653 91.337,39.126 91.907 C 39.434 92.278,39.093 92.846,37.545 94.543 C 37.093 95.039,36.370 95.842,35.939 96.328 L 35.154 97.212 34.060 96.189 C 27.895 90.423,18.003 92.903,15.992 100.719 C 15.565 102.381,15.807 106.523,16.407 107.821 C 16.672 108.395,16.889 108.915,16.889 108.977 C 16.889 109.769,20.466 113.328,21.269 113.335 C 21.365 113.335,21.703 113.471,22.019 113.636 C 23.757 114.543,27.423 114.546,29.478 113.641 C 29.863 113.472,30.271 113.333,30.384 113.333 C 30.751 113.333,32.752 111.951,33.725 111.026 L 34.672 110.125 36.787 112.229 C 39.318 114.747,39.318 114.751,37.111 116.540 C 28.262 123.714,14.866 121.292,10.242 111.683 C 8.327 107.703,7.905 101.211,9.331 97.667 C 11.513 92.242,15.674 88.350,20.828 86.912 C 22.810 86.359,28.241 86.282,30.156 86.779 M240.222 86.768 C 240.650 86.851,241.200 87.007,241.444 87.114 C 243.569 88.046,243.991 88.222,244.101 88.222 C 244.273 88.222,246.368 89.699,247.387 90.538 C 252.818 95.010,254.689 104.348,251.485 111.000 C 249.405 115.319,245.128 118.927,240.613 120.169 C 238.377 120.784,230.504 120.635,230.093 119.971 C 230.027 119.865,229.798 119.778,229.584 119.778 C 227.806 119.778,223.259 116.316,220.973 113.222 C 218.040 109.253,217.377 101.849,219.492 96.667 C 221.300 92.237,225.838 88.263,230.653 86.893 C 232.147 86.468,238.272 86.388,240.222 86.768 M339.892 87.007 C 349.633 89.830,354.522 99.488,351.291 109.527 C 349.679 114.532,345.021 118.740,339.447 120.224 C 337.087 120.853,329.638 120.673,329.208 119.977 C 329.140 119.867,328.904 119.778,328.683 119.778 C 327.890 119.778,325.156 118.202,323.506 116.795 C 312.976 107.810,316.634 90.583,329.859 86.875 C 332.171 86.227,337.438 86.296,339.892 87.007 M45.487 87.032 C 45.402 87.116,45.333 94.669,45.333 103.815 L 45.333 120.444 49.113 120.444 L 52.892 120.444 52.835 103.722 L 52.778 87.000 49.209 86.939 C 47.246 86.906,45.571 86.947,45.487 87.032 M58.049 90.056 L 58.111 93.222 62.833 93.282 L 67.556 93.342 67.556 106.893 L 67.556 120.444 71.221 120.444 L 74.885 120.444 74.943 106.944 L 75.000 93.444 79.722 93.384 L 84.444 93.324 84.444 90.107 L 84.444 86.889 71.216 86.889 L 57.988 86.889 58.049 90.056 M87.778 87.013 C 87.778 87.128,88.138 87.795,89.302 89.833 C 90.313 91.604,90.683 92.251,91.145 93.056 C 91.409 93.514,91.908 94.422,92.254 95.073 C 92.600 95.724,93.063 96.524,93.283 96.851 C 93.503 97.177,93.826 97.744,94.001 98.111 C 94.176 98.478,94.576 99.178,94.889 99.667 C 95.202 100.156,95.601 100.856,95.777 101.222 C 95.952 101.589,96.275 102.156,96.495 102.482 C 96.714 102.809,97.175 103.609,97.519 104.260 C 98.479 106.079,98.759 106.542,99.000 106.714 C 99.137 106.812,99.247 109.464,99.287 113.658 L 99.352 120.444 103.009 120.444 L 106.667 120.444 106.667 113.896 C 106.667 106.733,106.545 107.547,108.000 105.000 C 108.244 104.572,108.644 103.872,108.889 103.444 C 109.133 103.017,109.533 102.317,109.778 101.889 C 110.022 101.461,110.422 100.761,110.667 100.333 C 110.911 99.906,111.311 99.206,111.556 98.778 C 111.800 98.350,112.200 97.650,112.444 97.222 C 112.689 96.794,113.104 96.069,113.368 95.611 C 113.631 95.153,114.056 94.378,114.312 93.889 C 114.568 93.400,114.828 92.950,114.889 92.889 C 115.031 92.746,115.473 91.970,116.259 90.482 C 116.602 89.831,117.078 89.025,117.316 88.691 C 117.554 88.357,117.816 87.813,117.900 87.481 L 118.051 86.878 114.100 86.939 L 110.149 87.000 109.773 87.667 C 109.422 88.288,109.136 88.791,108.000 90.778 C 107.756 91.206,107.356 91.906,107.111 92.333 C 106.867 92.761,106.455 93.486,106.196 93.944 C 105.937 94.403,105.559 95.028,105.355 95.333 C 105.151 95.639,104.841 96.189,104.665 96.556 C 103.376 99.255,102.895 99.471,101.956 97.771 C 101.587 97.103,101.117 96.306,100.912 96.000 C 100.707 95.694,100.397 95.144,100.222 94.778 C 100.048 94.411,99.738 93.861,99.534 93.556 C 99.330 93.250,98.951 92.625,98.693 92.167 C 98.434 91.708,98.022 90.983,97.778 90.556 C 97.288 89.698,96.647 88.569,96.188 87.753 C 96.023 87.461,95.789 87.149,95.667 87.059 C 95.410 86.871,87.778 86.826,87.778 87.013 M186.833 87.015 C 186.742 87.109,186.667 94.669,186.667 103.815 L 186.667 120.444 195.767 120.444 C 204.302 120.444,206.372 120.330,207.667 119.787 C 209.271 119.115,209.766 118.822,210.576 118.068 C 213.570 115.282,214.515 109.376,212.367 106.868 C 212.165 106.632,212.000 106.383,212.000 106.314 C 212.000 106.087,210.706 104.889,210.462 104.889 C 210.330 104.889,210.222 104.805,210.222 104.702 C 210.222 104.479,208.522 103.609,207.891 103.509 C 207.191 103.398,207.251 102.810,207.997 102.481 C 210.728 101.275,212.501 96.375,211.331 93.263 C 210.878 92.057,210.160 90.667,209.991 90.667 C 209.902 90.667,209.779 90.471,209.716 90.233 C 209.589 89.748,207.029 88.000,206.447 88.000 C 206.242 88.000,206.003 87.928,205.915 87.841 C 205.238 87.164,187.443 86.394,186.833 87.015 M288.000 90.111 L 288.000 93.333 292.667 93.333 L 297.333 93.333 297.333 106.889 L 297.333 120.444 301.111 120.444 L 304.889 120.444 304.889 106.889 L 304.889 93.333 309.556 93.333 L 314.222 93.333 314.222 90.111 L 314.222 86.889 301.111 86.889 L 288.000 86.889 288.000 90.111 M359.259 87.037 C 359.178 87.119,359.111 94.669,359.111 103.815 L 359.111 120.444 362.889 120.444 L 366.667 120.444 366.667 110.111 C 366.667 103.370,366.744 99.778,366.889 99.778 C 367.011 99.778,367.111 99.859,367.111 99.958 C 367.111 100.057,367.288 100.332,367.504 100.569 C 367.720 100.806,369.073 102.570,370.509 104.489 C 371.946 106.408,373.247 108.108,373.401 108.267 C 373.555 108.426,373.923 108.906,374.219 109.333 C 374.514 109.761,374.816 110.161,374.889 110.222 C 374.962 110.283,375.262 110.683,375.556 111.111 C 375.849 111.539,376.149 111.939,376.222 112.000 C 376.295 112.061,376.595 112.461,376.889 112.889 C 377.183 113.317,377.481 113.717,377.551 113.778 C 377.622 113.839,378.252 114.658,378.953 115.597 C 379.653 116.537,380.359 117.439,380.522 117.601 C 380.684 117.764,380.859 118.006,380.909 118.139 C 380.959 118.273,381.391 118.846,381.868 119.413 L 382.737 120.444 386.479 120.444 L 390.222 120.444 390.222 103.667 L 390.222 86.889 386.556 86.889 L 382.889 86.889 382.889 96.301 C 382.889 105.642,382.779 108.444,382.413 108.444 C 382.308 108.444,382.222 108.319,382.221 108.167 C 382.221 108.014,381.921 107.569,381.555 107.179 C 381.188 106.788,380.888 106.388,380.888 106.290 C 380.887 106.192,380.609 105.811,380.270 105.444 C 379.930 105.078,379.410 104.428,379.115 104.000 C 378.819 103.572,378.517 103.172,378.444 103.111 C 378.372 103.050,378.072 102.650,377.778 102.222 C 377.484 101.794,377.185 101.394,377.113 101.333 C 377.042 101.272,375.810 99.652,374.376 97.733 C 372.941 95.814,371.642 94.114,371.488 93.955 C 371.334 93.797,370.966 93.317,370.670 92.889 C 370.374 92.461,370.073 92.061,370.000 92.000 C 369.927 91.939,369.627 91.539,369.333 91.111 C 369.040 90.683,368.740 90.283,368.668 90.222 C 368.595 90.161,368.002 89.386,367.349 88.500 L 366.161 86.889 362.784 86.889 C 360.927 86.889,359.341 86.956,359.259 87.037 M52.667 103.667 L 52.667 120.222 49.111 120.222 L 45.556 120.222 45.556 103.667 L 45.556 87.111 49.111 87.111 L 52.667 87.111 52.667 103.667 M84.222 90.111 L 84.222 93.111 79.796 93.111 C 77.362 93.111,75.212 93.172,75.018 93.246 C 74.703 93.367,74.667 94.769,74.667 106.802 L 74.667 120.222 71.224 120.222 L 67.781 120.222 67.724 106.722 L 67.667 93.222 62.944 93.162 L 58.222 93.102 58.222 90.255 C 58.222 88.689,58.289 87.341,58.370 87.259 C 58.452 87.178,64.302 87.111,71.370 87.111 L 84.222 87.111 84.222 90.111 M96.353 88.500 C 96.804 89.264,97.422 90.339,97.727 90.889 C 98.032 91.439,98.604 92.439,98.999 93.111 C 100.278 95.291,101.497 97.422,102.051 98.444 C 102.922 100.051,102.808 100.164,106.192 94.386 C 106.820 93.315,107.333 92.400,107.333 92.353 C 107.333 92.306,107.733 91.609,108.222 90.805 C 108.711 90.000,109.111 89.295,109.111 89.237 C 109.111 89.180,109.418 88.678,109.794 88.122 L 110.476 87.111 114.151 87.111 C 118.369 87.111,118.122 86.879,116.624 89.444 C 116.124 90.300,115.394 91.550,115.002 92.222 C 114.609 92.894,114.003 93.994,113.655 94.667 C 113.306 95.339,112.906 96.039,112.765 96.222 C 112.624 96.406,112.224 97.106,111.876 97.778 C 111.528 98.450,111.128 99.150,110.987 99.333 C 110.846 99.517,110.382 100.317,109.955 101.111 C 109.528 101.906,108.864 103.085,108.479 103.732 C 108.093 104.379,107.778 104.951,107.778 105.002 C 107.778 105.054,107.478 105.569,107.111 106.147 L 106.444 107.198 106.444 113.710 L 106.444 120.222 103.000 120.222 L 99.556 120.222 99.556 113.716 C 99.556 108.035,99.509 107.144,99.190 106.687 C 98.988 106.400,98.452 105.503,97.998 104.694 C 97.544 103.884,96.758 102.497,96.253 101.611 C 95.747 100.725,94.920 99.275,94.414 98.389 C 92.567 95.153,91.712 93.641,91.051 92.444 C 90.680 91.772,90.192 90.957,89.966 90.632 C 89.740 90.308,89.556 89.987,89.556 89.920 C 89.556 89.852,89.256 89.289,88.889 88.667 C 87.937 87.052,87.823 87.111,91.878 87.111 L 95.534 87.111 96.353 88.500 M204.667 87.620 C 205.217 87.800,205.888 88.020,206.160 88.109 C 210.088 89.397,212.358 94.320,211.067 98.752 C 210.799 99.673,208.300 102.444,207.738 102.444 C 207.444 102.444,206.667 103.096,206.667 103.343 C 206.667 103.433,207.037 103.576,207.490 103.660 C 214.639 105.002,215.307 116.025,208.431 119.189 C 206.363 120.140,205.367 120.222,195.878 120.222 L 186.889 120.222 186.889 103.643 L 186.889 87.064 195.278 87.179 C 201.807 87.268,203.888 87.366,204.667 87.620 M314.000 90.107 L 314.000 93.102 309.389 93.162 L 304.778 93.222 304.721 106.722 L 304.663 120.222 301.111 120.222 L 297.559 120.222 297.502 106.722 L 297.444 93.222 292.833 93.162 L 288.222 93.102 288.222 90.107 L 288.222 87.111 301.111 87.111 L 314.000 87.111 314.000 90.107 M366.364 87.611 C 366.606 87.886,366.949 88.323,367.125 88.582 C 367.301 88.841,368.544 90.482,369.889 92.228 C 372.766 95.966,373.353 96.737,374.111 97.778 C 374.423 98.206,374.950 98.914,375.283 99.353 C 375.616 99.792,377.278 101.992,378.975 104.242 C 382.703 109.183,382.381 108.819,382.722 108.478 C 382.933 108.267,383.027 105.684,383.111 97.711 L 383.222 87.222 386.611 87.161 L 390.000 87.100 390.000 103.661 L 390.000 120.222 386.379 120.222 L 382.758 120.222 381.323 118.327 C 380.534 117.284,379.639 116.100,379.333 115.696 C 379.028 115.291,377.378 113.131,375.667 110.894 C 373.956 108.658,372.356 106.556,372.111 106.224 C 369.456 102.611,366.998 99.556,366.800 99.622 C 366.628 99.680,366.538 102.736,366.498 109.963 L 366.440 120.222 362.887 120.222 L 359.333 120.222 359.333 103.667 L 359.333 87.111 362.628 87.111 C 365.766 87.111,365.944 87.135,366.364 87.611 M163.270 88.438 C 161.551 89.297,160.578 90.942,159.751 94.389 C 159.597 95.031,159.386 95.556,159.281 95.556 C 159.176 95.556,158.676 95.756,158.170 96.000 C 157.664 96.244,157.124 96.444,156.971 96.444 C 156.612 96.444,156.000 97.316,156.000 97.827 C 156.000 98.157,156.198 98.222,157.195 98.222 C 158.854 98.222,158.934 98.389,158.418 100.778 C 158.180 101.878,157.901 103.228,157.797 103.778 C 157.636 104.634,157.020 107.579,156.217 111.333 C 154.723 118.316,154.266 119.111,151.750 119.111 L 150.444 119.111 150.444 120.437 C 150.444 124.065,157.308 122.034,158.301 118.111 C 158.363 117.867,158.523 117.267,158.656 116.778 C 158.790 116.289,159.006 115.339,159.137 114.667 C 159.608 112.241,159.735 111.632,160.222 109.444 C 160.712 107.247,160.867 106.499,161.288 104.333 C 162.516 97.998,162.392 98.222,164.668 98.222 C 166.629 98.222,166.456 98.372,166.775 96.389 L 166.909 95.556 165.134 95.556 C 163.139 95.556,163.025 95.482,163.374 94.421 C 164.425 91.227,165.013 90.731,167.441 90.991 C 168.662 91.122,168.845 91.092,168.962 90.737 C 169.035 90.515,169.236 89.961,169.408 89.507 C 169.706 88.719,169.697 88.665,169.201 88.340 C 168.400 87.815,164.385 87.881,163.270 88.438 M169.091 88.484 C 169.437 88.700,169.471 88.845,169.283 89.317 C 168.629 90.962,168.694 90.914,167.323 90.759 C 165.107 90.508,164.197 91.200,163.350 93.780 C 162.749 95.610,162.888 95.778,165.013 95.778 L 166.639 95.778 166.523 96.611 C 166.326 98.025,166.361 98.000,164.597 98.000 C 162.290 98.000,162.281 98.016,161.084 104.222 C 160.637 106.539,160.493 107.229,160.000 109.444 C 159.513 111.632,159.386 112.241,158.915 114.667 C 158.694 115.802,158.494 116.612,158.091 118.000 C 157.393 120.408,155.194 122.000,152.567 122.000 C 150.917 122.000,150.667 121.789,150.667 120.400 L 150.667 119.333 151.786 119.333 C 154.336 119.333,155.107 118.117,156.224 112.333 C 156.319 111.844,156.718 109.944,157.111 108.111 C 157.504 106.278,157.904 104.378,158.000 103.889 C 158.095 103.400,158.393 101.967,158.661 100.704 C 159.225 98.047,159.275 98.167,157.551 98.043 C 156.820 97.990,156.222 97.852,156.222 97.736 C 156.222 97.306,156.693 96.667,157.011 96.667 C 157.192 96.667,157.513 96.569,157.725 96.450 C 157.937 96.331,158.467 96.094,158.901 95.924 C 159.641 95.634,159.715 95.512,160.086 93.974 C 160.821 90.925,161.708 89.503,163.444 88.590 C 164.268 88.158,168.443 88.079,169.091 88.484 M234.000 92.482 C 233.450 92.598,232.685 92.838,232.300 93.013 C 231.915 93.189,231.536 93.333,231.457 93.333 C 230.123 93.333,226.035 98.260,226.008 99.900 C 226.003 100.151,225.885 100.471,225.744 100.612 C 225.254 101.101,225.408 105.687,225.971 107.367 C 227.945 113.260,234.058 116.350,239.256 114.083 C 239.641 113.915,240.020 113.778,240.098 113.778 C 240.176 113.778,240.561 113.555,240.953 113.283 C 246.495 109.436,247.660 101.795,243.537 96.335 C 241.290 93.359,237.358 91.770,234.000 92.482 M333.667 92.444 C 333.422 92.549,332.986 92.642,332.698 92.651 C 329.946 92.733,326.166 96.518,325.001 100.359 C 322.364 109.050,331.521 117.944,338.960 113.917 C 348.365 108.827,346.724 94.718,336.477 92.562 C 334.675 92.183,334.310 92.168,333.667 92.444 M237.022 92.641 C 237.377 92.749,238.117 92.969,238.667 93.130 C 243.633 94.588,246.871 100.892,245.452 106.341 C 242.722 116.822,229.844 117.454,226.201 107.286 C 225.632 105.698,225.471 101.107,225.966 100.612 C 226.107 100.471,226.222 100.165,226.222 99.931 C 226.222 96.364,233.381 91.531,237.022 92.641 M336.000 92.671 C 337.682 93.033,338.750 93.397,339.368 93.819 C 339.692 94.041,340.042 94.224,340.145 94.226 C 340.349 94.230,342.123 95.884,342.667 96.576 C 343.091 97.116,344.303 99.644,344.635 100.682 C 344.963 101.706,344.963 105.402,344.636 106.429 C 344.052 108.261,343.482 109.504,342.845 110.333 C 336.582 118.494,324.948 114.110,324.899 103.571 C 324.888 101.313,325.067 100.510,326.109 98.146 C 327.037 96.039,330.932 92.927,332.708 92.873 C 332.991 92.865,333.422 92.772,333.667 92.667 C 334.260 92.412,334.802 92.413,336.000 92.671 M194.146 93.212 C 193.926 93.786,193.978 100.287,194.205 100.647 C 194.450 101.033,200.230 100.831,201.668 100.386 C 204.965 99.366,205.325 94.881,202.222 93.486 C 200.786 92.840,194.372 92.623,194.146 93.212 M202.029 93.633 C 204.805 94.841,204.700 99.400,201.880 100.092 C 200.608 100.404,197.438 100.683,195.894 100.620 L 194.333 100.556 194.272 97.120 C 194.238 95.231,194.265 93.543,194.332 93.369 C 194.507 92.911,200.872 93.129,202.029 93.633 M144.556 95.473 C 143.094 95.689,141.825 96.398,140.434 97.778 C 135.814 102.357,135.844 111.816,140.484 113.541 C 140.890 113.691,141.396 113.907,141.608 114.019 C 143.619 115.080,149.909 113.058,150.620 111.121 C 150.689 110.932,150.821 110.726,150.913 110.663 C 151.293 110.403,152.406 107.980,152.657 106.865 C 152.806 106.206,153.019 105.305,153.130 104.863 C 154.598 99.054,150.522 94.590,144.556 95.473 M149.722 96.250 C 155.559 99.067,153.333 111.347,146.572 113.630 C 145.386 114.030,141.895 114.148,141.677 113.795 C 141.608 113.682,141.263 113.527,140.912 113.450 C 135.113 112.176,136.519 99.271,142.778 96.323 C 144.678 95.429,147.947 95.394,149.722 96.250 M144.778 98.477 C 140.921 99.886,138.959 108.724,142.019 110.903 C 143.607 112.033,146.475 111.257,147.614 109.387 C 151.308 103.326,149.590 96.719,144.778 98.477 M147.374 98.643 C 151.284 100.153,148.949 110.741,144.615 111.154 C 141.810 111.422,140.753 110.202,140.814 106.769 C 140.909 101.462,144.180 97.409,147.374 98.643 M194.267 106.267 C 193.947 106.586,193.892 113.929,194.205 114.424 C 194.453 114.815,202.097 114.629,203.333 114.201 C 206.594 113.073,207.203 108.568,204.291 107.114 C 202.453 106.196,194.970 105.563,194.267 106.267 M200.735 106.454 C 204.286 106.968,205.744 107.845,205.811 109.507 C 205.975 113.532,204.804 114.275,198.246 114.312 L 194.333 114.333 194.272 110.564 C 194.239 108.490,194.260 106.665,194.321 106.508 C 194.459 106.149,198.400 106.115,200.735 106.454 " stroke="none" fill="#445c64" fill-rule="evenodd"></path><path id="path4" d="M23.222 86.000 C 22.685 86.096,23.696 86.161,25.778 86.164 C 27.785 86.167,28.944 86.099,28.556 86.000 C 27.722 85.788,24.407 85.788,23.222 86.000 M233.000 86.000 C 232.463 86.096,233.473 86.161,235.556 86.164 C 237.563 86.167,238.722 86.099,238.333 86.000 C 237.499 85.788,234.185 85.788,233.000 86.000 M267.678 85.979 C 267.439 86.072,268.789 86.145,270.678 86.140 C 272.566 86.136,273.811 86.064,273.444 85.981 C 272.524 85.773,268.208 85.771,267.678 85.979 M332.111 86.000 C 331.574 86.096,332.585 86.161,334.667 86.164 C 336.674 86.167,337.833 86.099,337.444 86.000 C 336.610 85.788,333.296 85.788,332.111 86.000 M21.000 86.444 L 20.556 86.635 21.000 86.635 C 21.244 86.635,21.644 86.549,21.889 86.444 L 22.333 86.253 21.889 86.253 C 21.644 86.253,21.244 86.339,21.000 86.444 M29.667 86.444 C 30.320 86.725,31.323 86.725,30.889 86.444 C 30.706 86.326,30.256 86.235,29.889 86.241 C 29.317 86.252,29.285 86.280,29.667 86.444 M230.778 86.444 L 230.333 86.635 230.778 86.635 C 231.022 86.635,231.422 86.549,231.667 86.444 L 232.111 86.253 231.667 86.253 C 231.422 86.253,231.022 86.339,230.778 86.444 M239.444 86.444 C 239.689 86.549,240.189 86.635,240.556 86.635 C 241.124 86.635,241.157 86.607,240.778 86.444 C 240.533 86.339,240.033 86.253,239.667 86.253 C 239.098 86.253,239.066 86.282,239.444 86.444 M265.000 86.709 C 262.399 87.623,258.437 91.178,259.185 91.926 C 259.246 91.987,259.458 91.693,259.657 91.273 C 260.340 89.835,263.570 87.111,264.593 87.111 C 264.759 87.111,265.069 87.020,265.281 86.908 C 265.493 86.796,266.017 86.606,266.444 86.486 C 266.876 86.365,267.024 86.262,266.778 86.254 C 266.533 86.247,265.733 86.452,265.000 86.709 M274.259 86.333 C 274.320 86.394,274.812 86.540,275.352 86.657 C 277.407 87.103,277.654 87.109,276.556 86.685 C 275.553 86.298,273.984 86.058,274.259 86.333 M329.889 86.444 L 329.444 86.635 329.889 86.635 C 330.133 86.635,330.533 86.549,330.778 86.444 L 331.222 86.253 330.778 86.253 C 330.533 86.253,330.133 86.339,329.889 86.444 M338.889 86.467 C 340.752 86.956,341.531 87.227,342.889 87.858 C 343.683 88.228,344.383 88.590,344.444 88.665 C 344.506 88.739,344.906 89.033,345.333 89.318 C 346.370 90.009,349.778 93.514,349.778 93.889 C 349.778 94.052,349.857 94.219,349.955 94.259 C 350.052 94.300,350.448 94.983,350.835 95.778 C 351.222 96.572,351.543 97.094,351.547 96.937 C 351.648 93.465,342.687 86.070,338.588 86.242 C 338.281 86.255,338.388 86.335,338.889 86.467 M19.333 86.889 C 18.892 87.174,19.447 87.174,20.111 86.889 L 20.556 86.698 20.111 86.686 C 19.867 86.679,19.517 86.770,19.333 86.889 M31.556 86.889 C 31.739 87.007,32.039 87.104,32.222 87.104 C 32.519 87.104,32.519 87.080,32.222 86.889 C 32.039 86.770,31.739 86.673,31.556 86.673 C 31.259 86.673,31.259 86.697,31.556 86.889 M45.333 86.833 C 45.333 86.925,47.033 87.000,49.111 87.000 C 51.189 87.000,52.889 86.925,52.889 86.833 C 52.889 86.742,51.189 86.667,49.111 86.667 C 47.033 86.667,45.333 86.742,45.333 86.833 M57.778 90.000 C 57.778 91.833,57.853 93.333,57.944 93.334 C 58.036 93.334,58.081 91.884,58.044 90.111 L 57.977 86.889 71.211 86.889 L 84.444 86.889 84.444 90.111 C 84.444 92.111,84.529 93.333,84.667 93.333 C 84.805 93.333,84.889 92.074,84.889 90.000 L 84.889 86.667 71.333 86.667 L 57.778 86.667 57.778 90.000 M87.556 86.952 C 87.556 87.261,91.937 95.121,92.538 95.889 C 92.887 96.335,92.041 94.614,91.145 93.056 C 90.683 92.251,90.313 91.604,89.302 89.833 C 88.138 87.795,87.778 87.128,87.778 87.013 C 87.778 86.826,95.410 86.871,95.667 87.059 C 95.789 87.149,96.023 87.461,96.188 87.753 C 96.647 88.569,97.288 89.698,97.778 90.556 C 98.022 90.983,98.434 91.708,98.693 92.167 C 98.951 92.625,99.330 93.250,99.534 93.556 C 99.738 93.861,100.048 94.411,100.222 94.778 C 100.397 95.144,100.707 95.694,100.912 96.000 C 101.117 96.306,101.587 97.103,101.956 97.771 C 102.895 99.471,103.376 99.255,104.665 96.556 C 104.841 96.189,105.151 95.639,105.355 95.333 C 105.559 95.028,105.937 94.403,106.196 93.944 C 106.455 93.486,106.867 92.761,107.111 92.333 C 107.356 91.906,107.766 91.181,108.024 90.722 C 108.281 90.264,108.595 89.761,108.722 89.606 C 108.849 89.450,108.900 89.270,108.836 89.207 C 108.773 89.143,108.242 89.921,107.657 90.934 C 107.073 91.948,106.126 93.578,105.553 94.556 C 104.980 95.533,104.189 96.908,103.795 97.611 C 102.998 99.033,102.882 99.105,102.541 98.387 C 102.411 98.113,101.520 96.539,100.561 94.889 C 99.601 93.239,98.154 90.739,97.344 89.333 L 95.873 86.778 91.714 86.717 C 88.378 86.669,87.556 86.715,87.556 86.952 M109.965 87.056 C 109.402 87.727,108.849 88.701,108.964 88.816 C 109.067 88.918,109.285 88.596,109.890 87.444 C 110.108 87.029,110.383 86.996,114.062 86.939 C 118.322 86.874,118.299 86.867,117.675 88.063 C 117.497 88.403,117.458 88.616,117.588 88.536 C 117.798 88.406,118.444 87.085,118.444 86.785 C 118.444 86.419,110.281 86.679,109.965 87.056 M186.667 86.833 C 186.667 86.925,190.537 87.000,195.267 87.000 C 199.997 87.000,203.572 86.937,203.211 86.860 C 202.271 86.658,186.667 86.634,186.667 86.833 M228.092 87.323 C 223.849 89.280,218.541 95.086,218.682 97.617 C 218.690 97.767,218.809 97.639,218.946 97.333 C 219.083 97.028,219.396 96.328,219.641 95.778 C 219.886 95.228,220.142 94.728,220.210 94.667 C 220.278 94.606,220.484 94.259,220.667 93.896 C 221.511 92.227,225.385 88.826,227.556 87.851 C 228.352 87.493,229.611 86.963,230.000 86.822 C 230.231 86.739,230.197 86.701,229.889 86.701 C 229.644 86.700,228.836 86.980,228.092 87.323 M287.556 90.000 C 287.556 92.074,287.640 93.333,287.778 93.333 C 287.916 93.333,288.000 92.111,288.000 90.111 L 288.000 86.889 301.111 86.889 L 314.222 86.889 314.222 90.111 C 314.222 92.111,314.307 93.333,314.444 93.333 C 314.583 93.333,314.667 92.074,314.667 90.000 L 314.667 86.667 301.111 86.667 L 287.556 86.667 287.556 90.000 M328.333 86.889 C 328.171 87.152,328.388 87.152,329.000 86.889 C 329.428 86.705,329.427 86.697,328.958 86.682 C 328.690 86.674,328.409 86.767,328.333 86.889 M359.111 86.828 C 359.111 86.923,360.693 86.970,362.628 86.934 L 366.146 86.868 367.341 88.490 C 367.998 89.381,368.595 90.161,368.668 90.222 C 368.740 90.283,369.040 90.683,369.333 91.111 C 369.627 91.539,369.927 91.939,370.000 92.000 C 370.073 92.061,370.374 92.461,370.670 92.889 C 370.966 93.317,371.334 93.797,371.488 93.955 C 371.642 94.114,372.941 95.814,374.376 97.733 C 375.810 99.652,377.042 101.272,377.113 101.333 C 377.185 101.394,377.484 101.794,377.778 102.222 C 378.072 102.650,378.372 103.050,378.444 103.111 C 378.517 103.172,378.819 103.572,379.115 104.000 C 379.410 104.428,379.930 105.078,380.270 105.444 C 380.609 105.811,380.887 106.192,380.888 106.290 C 380.888 106.388,381.188 106.788,381.555 107.179 C 381.921 107.569,382.221 108.014,382.221 108.167 C 382.222 108.319,382.322 108.444,382.444 108.444 C 382.567 108.444,382.657 108.069,382.645 107.611 C 382.627 106.942,382.593 106.881,382.476 107.300 C 382.338 107.789,382.263 107.738,381.321 106.523 C 379.651 104.367,373.480 96.230,372.946 95.479 C 372.672 95.093,371.070 92.978,369.386 90.778 L 366.323 86.778 362.717 86.717 C 360.734 86.683,359.111 86.733,359.111 86.828 M382.720 96.722 L 382.773 106.778 382.833 96.833 L 382.893 86.889 386.558 86.889 L 390.222 86.889 390.222 103.667 L 390.222 120.444 386.479 120.444 L 382.737 120.444 381.868 119.413 C 381.391 118.846,380.959 118.273,380.909 118.139 C 380.859 118.006,380.684 117.764,380.522 117.601 C 380.359 117.439,379.653 116.537,378.953 115.597 C 378.252 114.658,377.622 113.839,377.551 113.778 C 377.481 113.717,377.183 113.317,376.889 112.889 C 376.595 112.461,376.295 112.061,376.222 112.000 C 376.149 111.939,375.849 111.539,375.556 111.111 C 375.262 110.683,374.962 110.283,374.889 110.222 C 374.816 110.161,374.514 109.761,374.219 109.333 C 373.923 108.906,373.555 108.426,373.401 108.267 C 373.247 108.108,371.946 106.408,370.509 104.489 C 369.073 102.570,367.720 100.806,367.504 100.569 C 367.288 100.332,367.111 100.057,367.111 99.958 C 367.111 99.859,367.011 99.778,366.889 99.778 C 366.743 99.778,366.685 103.317,366.719 110.056 L 366.771 120.333 366.885 110.265 L 367.000 100.196 369.825 103.931 C 375.284 111.151,379.239 116.363,380.972 118.620 L 382.722 120.899 386.528 120.838 L 390.333 120.778 390.390 103.722 L 390.447 86.667 386.557 86.667 L 382.667 86.667 382.720 96.722 M33.884 87.807 C 36.267 89.037,39.556 91.668,39.556 92.344 C 39.556 92.491,39.156 93.036,38.667 93.556 C 38.178 94.075,37.778 94.545,37.778 94.600 C 37.778 94.656,37.503 94.976,37.167 95.312 C 36.831 95.648,36.306 96.240,36.000 96.626 C 35.285 97.531,35.028 97.514,34.038 96.490 C 33.082 95.501,31.270 94.218,30.849 94.232 C 30.688 94.237,30.913 94.431,31.351 94.662 C 31.788 94.893,32.815 95.689,33.633 96.430 C 35.350 97.986,35.304 97.972,35.893 97.128 C 36.139 96.775,36.849 95.940,37.470 95.273 C 39.491 93.101,39.874 92.499,39.606 91.912 C 39.121 90.846,33.840 87.100,32.846 87.116 C 32.686 87.118,33.153 87.429,33.884 87.807 M204.333 87.333 C 204.578 87.438,204.978 87.524,205.222 87.524 L 205.667 87.524 205.222 87.333 C 204.978 87.228,204.578 87.142,204.333 87.142 L 203.889 87.142 204.333 87.333 M243.569 87.751 C 247.129 89.520,249.826 92.205,251.576 95.722 C 252.047 96.669,252.434 97.294,252.436 97.111 C 252.454 94.608,244.961 87.005,242.592 87.124 C 242.450 87.131,242.889 87.413,243.569 87.751 M45.217 103.778 C 45.217 112.883,45.244 116.608,45.278 112.056 C 45.311 107.503,45.311 100.053,45.278 95.500 C 45.244 90.947,45.217 94.672,45.217 103.778 M52.994 103.778 C 52.994 112.883,53.022 116.608,53.055 112.056 C 53.089 107.503,53.089 100.053,53.055 95.500 C 53.022 90.947,52.994 94.672,52.994 103.778 M186.550 103.778 C 186.550 112.883,186.577 116.608,186.611 112.056 C 186.645 107.503,186.645 100.053,186.611 95.500 C 186.577 90.947,186.550 94.672,186.550 103.778 M358.994 103.778 C 358.994 112.883,359.022 116.608,359.055 112.056 C 359.089 107.503,359.089 100.053,359.055 95.500 C 359.022 90.947,358.994 94.672,358.994 103.778 M16.000 88.633 C 14.262 89.756,11.902 92.064,10.738 93.778 C 9.696 95.312,8.555 98.011,9.087 97.681 C 9.223 97.598,9.333 97.388,9.333 97.215 C 9.333 96.826,10.272 94.805,10.500 94.704 C 10.592 94.663,10.668 94.513,10.671 94.370 C 10.687 93.353,16.450 88.000,17.530 88.000 C 17.652 88.000,17.813 87.900,17.889 87.778 C 18.161 87.337,17.638 87.574,16.000 88.633 M164.556 87.778 C 164.272 87.900,164.956 87.965,166.444 87.958 C 167.971 87.951,168.547 87.889,168.111 87.778 C 167.197 87.545,165.097 87.545,164.556 87.778 M205.874 87.754 C 205.958 87.889,206.205 88.000,206.423 88.000 C 207.024 88.000,209.587 89.738,209.716 90.233 C 209.779 90.471,209.902 90.667,209.991 90.667 C 210.140 90.667,210.723 91.763,211.291 93.111 C 211.420 93.417,211.531 93.517,211.538 93.333 C 211.588 92.048,209.176 88.930,207.556 88.185 C 206.363 87.637,205.696 87.466,205.874 87.754 M278.889 87.656 C 278.889 87.712,279.264 87.930,279.722 88.141 C 280.614 88.553,282.366 89.682,282.849 90.156 C 283.132 90.434,282.487 91.737,281.952 91.963 C 281.856 92.004,281.774 92.154,281.769 92.296 C 281.764 92.439,281.464 92.902,281.102 93.325 C 280.740 93.748,280.444 94.180,280.444 94.285 C 280.444 94.390,280.297 94.624,280.116 94.805 C 279.935 94.985,279.695 95.299,279.582 95.501 C 279.400 95.826,279.228 95.771,278.116 95.032 C 277.423 94.572,276.770 94.227,276.664 94.265 C 276.558 94.302,277.122 94.723,277.917 95.200 C 279.597 96.207,279.344 96.333,281.233 93.556 C 281.940 92.517,282.727 91.382,282.981 91.033 L 283.444 90.400 282.667 89.741 C 281.509 88.761,278.889 87.315,278.889 87.656 M325.111 88.466 C 322.567 90.063,320.058 92.816,318.682 95.522 C 318.412 96.053,318.240 96.536,318.299 96.595 C 318.358 96.654,318.584 96.320,318.801 95.851 C 319.529 94.280,321.287 91.861,322.482 90.786 C 323.777 89.621,326.068 88.000,326.419 88.000 C 326.541 88.000,326.702 87.900,326.778 87.778 C 327.035 87.361,326.557 87.559,325.111 88.466 M162.525 88.634 C 162.043 88.983,161.471 89.558,161.252 89.912 C 160.930 90.435,161.002 90.397,161.642 89.707 C 162.074 89.240,162.807 88.669,163.270 88.438 C 163.732 88.207,163.951 88.014,163.756 88.009 C 163.560 88.004,163.006 88.285,162.525 88.634 M169.206 88.338 C 169.442 88.516,169.689 88.608,169.755 88.541 C 169.895 88.402,169.330 88.005,169.000 88.010 C 168.878 88.012,168.970 88.160,169.206 88.338 M117.017 89.083 C 116.942 89.206,116.599 89.837,116.256 90.486 C 115.472 91.973,115.031 92.747,114.889 92.889 C 114.827 92.950,114.631 93.300,114.452 93.667 C 114.273 94.033,113.938 94.614,113.706 94.957 C 113.474 95.300,113.336 95.632,113.399 95.695 C 113.461 95.757,114.376 94.288,115.431 92.431 C 116.486 90.573,117.305 89.009,117.252 88.956 C 117.199 88.903,117.093 88.960,117.017 89.083 M169.444 89.333 C 169.361 89.596,169.343 89.861,169.404 89.922 C 169.465 89.983,169.583 89.818,169.667 89.556 C 169.750 89.293,169.768 89.028,169.707 88.967 C 169.646 88.905,169.528 89.070,169.444 89.333 M168.965 90.621 C 168.876 90.964,168.661 91.116,168.252 91.127 C 167.718 91.141,168.059 91.465,168.687 91.540 C 168.885 91.564,169.369 90.406,169.222 90.259 C 169.151 90.188,169.036 90.351,168.965 90.621 M166.167 91.046 C 166.442 91.099,166.892 91.099,167.167 91.046 C 167.442 90.993,167.217 90.949,166.667 90.949 C 166.117 90.949,165.892 90.993,166.167 91.046 M164.586 91.697 C 164.264 92.019,164.003 92.444,164.007 92.641 C 164.012 92.921,164.066 92.902,164.253 92.556 C 164.384 92.311,164.756 91.887,165.079 91.612 C 165.402 91.338,165.555 91.113,165.419 91.112 C 165.283 91.112,164.908 91.375,164.586 91.697 M160.148 91.926 C 160.067 92.007,160.006 92.282,160.014 92.537 C 160.027 92.963,160.045 92.957,160.241 92.468 C 160.459 91.924,160.414 91.661,160.148 91.926 M258.778 92.889 C 258.693 93.273,258.674 93.637,258.735 93.698 C 258.797 93.760,258.916 93.495,259.000 93.111 C 259.084 92.727,259.103 92.363,259.042 92.302 C 258.981 92.240,258.862 92.505,258.778 92.889 M234.333 92.667 C 233.867 92.785,234.235 92.840,235.556 92.847 C 236.797 92.854,237.292 92.792,237.000 92.667 C 236.462 92.436,235.241 92.436,234.333 92.667 M269.222 92.667 C 268.932 92.791,269.474 92.854,270.778 92.848 C 272.418 92.840,272.618 92.805,271.889 92.654 C 270.755 92.419,269.787 92.424,269.222 92.667 M333.667 92.667 C 333.369 92.795,333.771 92.854,334.889 92.847 C 336.106 92.839,336.376 92.791,335.889 92.667 C 334.986 92.437,334.201 92.437,333.667 92.667 M232.556 93.111 C 232.393 93.374,232.611 93.374,233.222 93.111 C 233.651 92.927,233.649 92.920,233.180 92.905 C 232.912 92.896,232.631 92.989,232.556 93.111 M237.889 93.111 C 238.553 93.397,239.108 93.397,238.667 93.111 C 238.483 92.993,238.133 92.901,237.889 92.908 L 237.444 92.920 237.889 93.111 M267.184 93.893 C 265.826 95.310,265.857 96.519,267.291 98.056 C 267.604 98.392,267.988 98.667,268.144 98.667 C 268.300 98.667,268.025 98.291,267.533 97.833 C 266.032 96.433,266.238 94.281,267.955 93.425 C 268.619 93.094,268.806 92.889,268.443 92.889 C 268.280 92.889,267.713 93.341,267.184 93.893 M273.111 93.111 C 273.550 93.395,274.286 93.395,274.111 93.111 C 274.036 92.989,273.705 92.890,273.376 92.892 C 272.908 92.895,272.850 92.943,273.111 93.111 M331.778 93.111 C 331.353 93.385,331.810 93.385,332.667 93.111 L 333.222 92.933 332.667 92.914 C 332.361 92.904,331.961 92.993,331.778 93.111 M337.000 93.111 C 337.664 93.397,338.220 93.397,337.778 93.111 C 337.594 92.993,337.244 92.901,337.000 92.908 L 336.556 92.920 337.000 93.111 M159.667 93.778 C 159.582 94.162,159.563 94.526,159.624 94.587 C 159.685 94.648,159.805 94.384,159.889 94.000 C 159.973 93.616,159.992 93.252,159.931 93.190 C 159.870 93.129,159.751 93.394,159.667 93.778 M163.704 93.259 C 163.622 93.341,163.562 93.616,163.570 93.870 C 163.583 94.296,163.601 94.290,163.797 93.801 C 164.014 93.257,163.969 92.994,163.704 93.259 M194.320 93.398 C 194.260 93.556,194.238 95.231,194.272 97.120 L 194.333 100.556 196.501 100.568 L 198.668 100.581 196.556 100.505 L 194.444 100.428 194.444 96.887 L 194.444 93.347 197.278 93.277 L 200.111 93.208 197.271 93.159 C 195.119 93.123,194.404 93.181,194.320 93.398 M23.556 93.557 C 23.328 93.706,23.575 93.730,24.333 93.634 C 24.944 93.556,25.486 93.457,25.537 93.413 C 25.758 93.223,23.856 93.361,23.556 93.557 M26.907 93.413 C 26.958 93.457,27.550 93.555,28.222 93.630 C 29.039 93.721,29.334 93.696,29.111 93.553 C 28.809 93.360,26.690 93.225,26.907 93.413 M62.832 93.500 L 67.330 93.565 67.389 106.949 L 67.448 120.333 67.502 106.833 L 67.556 93.333 62.944 93.384 L 58.333 93.435 62.832 93.500 M75.037 93.481 C 74.956 93.563,74.889 99.663,74.889 107.037 L 74.889 120.444 71.222 120.444 C 68.926 120.444,67.556 120.527,67.556 120.667 C 67.556 120.806,68.963 120.889,71.333 120.889 L 75.111 120.889 75.111 107.227 L 75.111 93.565 79.722 93.500 L 84.333 93.435 79.759 93.384 C 77.244 93.356,75.119 93.400,75.037 93.481 M200.241 93.415 C 200.292 93.460,200.733 93.564,201.222 93.645 C 201.859 93.752,202.017 93.730,201.778 93.567 C 201.478 93.363,200.018 93.218,200.241 93.415 M230.527 94.186 C 228.546 95.467,226.185 98.625,226.240 99.920 C 226.251 100.190,226.341 100.101,226.498 99.667 C 227.282 97.498,229.458 94.905,231.241 94.014 C 231.781 93.745,232.222 93.481,232.222 93.429 C 232.222 93.186,231.745 93.399,230.527 94.186 M240.102 93.927 C 241.533 94.671,243.259 96.455,244.161 98.121 C 244.555 98.849,244.880 99.329,244.883 99.188 C 244.916 97.771,240.615 93.292,239.271 93.344 C 239.122 93.349,239.496 93.612,240.102 93.927 M292.609 93.500 L 297.108 93.565 297.167 106.949 L 297.226 120.333 297.280 106.833 L 297.333 93.333 292.722 93.384 L 288.111 93.435 292.609 93.500 M304.943 106.833 L 304.996 120.333 305.056 106.949 L 305.115 93.565 309.613 93.500 L 314.111 93.435 309.500 93.384 L 304.889 93.333 304.943 106.833 M330.169 93.835 C 328.607 94.705,325.753 98.038,325.788 98.951 C 325.794 99.100,326.036 98.767,326.325 98.211 C 327.093 96.737,328.792 94.947,330.149 94.181 C 331.256 93.557,331.564 93.306,331.167 93.353 C 331.075 93.364,330.626 93.581,330.169 93.835 M338.241 93.416 C 338.292 93.462,338.683 93.668,339.111 93.874 L 339.889 94.249 339.333 93.796 C 338.897 93.440,337.868 93.082,338.241 93.416 M21.247 94.390 C 19.259 95.420,16.439 98.695,16.447 99.965 C 16.448 100.168,16.703 99.783,17.014 99.111 C 17.818 97.374,19.769 95.450,21.660 94.531 C 22.513 94.117,23.013 93.789,22.772 93.802 C 22.531 93.816,21.845 94.080,21.247 94.390 M202.941 94.426 C 203.638 95.049,203.667 95.140,203.667 96.738 C 203.667 97.653,203.742 98.356,203.833 98.299 C 204.691 97.769,203.441 93.778,202.418 93.778 C 202.306 93.778,202.542 94.070,202.941 94.426 M211.608 95.889 C 211.608 97.890,211.630 98.008,211.824 97.076 C 211.964 96.406,211.964 95.623,211.824 94.854 C 211.620 93.729,211.608 93.783,211.608 95.889 M258.395 95.056 C 258.334 95.636,258.356 96.661,258.444 97.333 C 258.584 98.403,258.608 98.271,258.635 96.278 C 258.669 93.833,258.575 93.353,258.395 95.056 M341.036 95.167 C 341.600 95.686,342.398 96.610,342.809 97.219 C 343.533 98.294,343.841 98.487,343.278 97.514 C 342.682 96.483,340.558 94.235,340.172 94.226 C 340.083 94.224,340.472 94.647,341.036 95.167 M163.259 94.762 C 163.003 95.428,163.303 95.556,165.120 95.556 L 166.880 95.556 166.781 96.611 C 166.702 97.455,166.719 97.533,166.870 97.000 C 167.328 95.380,167.288 95.333,165.437 95.333 C 163.925 95.333,163.746 95.287,163.586 94.853 C 163.427 94.424,163.392 94.415,163.259 94.762 M159.296 95.086 C 159.256 95.195,158.522 95.579,157.667 95.939 C 156.612 96.384,156.088 96.732,156.038 97.020 C 155.974 97.391,156.011 97.381,156.328 96.944 C 156.528 96.669,156.817 96.444,156.971 96.444 C 157.124 96.444,157.664 96.244,158.170 96.000 C 158.676 95.756,159.194 95.556,159.323 95.556 C 159.451 95.556,159.556 95.406,159.556 95.222 C 159.556 94.854,159.412 94.779,159.296 95.086 M144.166 95.297 C 143.952 95.381,144.952 95.455,146.388 95.460 C 147.825 95.465,148.750 95.398,148.444 95.312 C 147.723 95.108,144.669 95.097,144.166 95.297 M149.667 95.959 C 150.033 96.181,150.509 96.427,150.723 96.507 C 150.937 96.587,151.512 97.272,152.000 98.028 C 152.489 98.784,152.886 99.262,152.883 99.090 C 152.867 98.176,150.195 95.554,149.282 95.556 C 149.127 95.557,149.300 95.738,149.667 95.959 M113.047 96.152 C 112.987 96.252,112.727 96.708,112.469 97.167 C 112.211 97.625,111.800 98.350,111.556 98.778 C 111.311 99.206,110.911 99.906,110.667 100.333 C 110.422 100.761,110.022 101.461,109.778 101.889 C 109.533 102.317,109.133 103.017,108.889 103.444 C 108.644 103.872,108.244 104.572,108.000 105.000 C 106.545 107.547,106.667 106.733,106.667 113.896 L 106.667 120.444 103.009 120.444 L 99.352 120.444 99.287 113.658 C 99.247 109.464,99.137 106.812,99.000 106.714 C 98.756 106.540,98.471 106.066,97.502 104.222 C 96.885 103.050,96.444 102.422,96.444 102.717 C 96.444 102.793,97.044 103.912,97.778 105.204 L 99.111 107.553 99.111 114.226 L 99.111 120.899 102.944 120.839 L 106.778 120.778 106.837 114.101 L 106.895 107.424 110.112 101.784 C 111.881 98.682,113.290 96.105,113.242 96.057 C 113.195 96.009,113.107 96.052,113.047 96.152 M141.667 96.408 C 140.238 97.280,137.407 101.036,137.847 101.476 C 137.898 101.528,138.221 100.997,138.564 100.297 C 139.167 99.064,140.863 97.134,142.000 96.388 C 142.761 95.889,142.492 95.905,141.667 96.408 M92.889 96.521 C 92.889 96.710,95.974 102.063,96.226 102.311 C 96.514 102.595,95.309 100.249,94.715 99.371 C 94.494 99.045,94.074 98.297,93.782 97.710 C 93.318 96.778,92.889 96.206,92.889 96.521 M317.889 97.333 C 317.805 97.596,317.787 97.861,317.848 97.922 C 317.909 97.983,318.028 97.818,318.111 97.556 C 318.195 97.293,318.213 97.028,318.152 96.967 C 318.091 96.905,317.972 97.070,317.889 97.333 M351.575 97.556 C 351.581 97.739,351.673 98.089,351.778 98.333 L 351.969 98.778 351.981 98.333 C 351.988 98.089,351.896 97.739,351.778 97.556 C 351.586 97.259,351.564 97.259,351.575 97.556 M155.804 97.704 C 155.731 98.439,156.061 98.667,157.202 98.667 C 157.836 98.667,158.476 98.787,158.622 98.933 C 158.770 99.081,158.889 99.101,158.889 98.978 C 158.889 98.486,158.297 98.222,157.194 98.222 C 156.275 98.222,156.011 98.141,155.931 97.833 C 155.875 97.619,155.818 97.561,155.804 97.704 M252.463 97.778 C 252.470 97.961,252.562 98.311,252.667 98.556 L 252.858 99.000 252.870 98.556 C 252.877 98.311,252.785 97.961,252.667 97.778 C 252.475 97.481,252.453 97.481,252.463 97.778 M166.462 97.944 C 166.450 98.142,165.933 98.222,164.672 98.222 C 162.795 98.222,162.185 98.651,162.239 99.933 C 162.248 100.153,162.382 99.983,162.536 99.556 L 162.815 98.778 164.612 98.667 C 166.488 98.551,166.790 98.443,166.596 97.958 C 166.509 97.740,166.475 97.736,166.462 97.944 M8.556 98.667 C 8.471 99.051,8.452 99.415,8.513 99.476 C 8.574 99.537,8.693 99.273,8.778 98.889 C 8.862 98.505,8.881 98.140,8.820 98.079 C 8.759 98.018,8.640 98.283,8.556 98.667 M218.333 98.667 C 218.249 99.051,218.230 99.415,218.291 99.476 C 218.352 99.537,218.471 99.273,218.556 98.889 C 218.640 98.505,218.659 98.140,218.598 98.079 C 218.537 98.018,218.418 98.283,218.333 98.667 M211.253 98.764 C 210.926 100.012,209.221 101.941,207.950 102.501 C 207.195 102.834,207.226 103.423,208.002 103.498 L 208.556 103.551 208.021 103.325 C 207.493 103.103,207.499 103.092,208.465 102.478 C 210.086 101.448,211.685 99.346,211.503 98.485 C 211.451 98.240,211.365 98.336,211.253 98.764 M317.457 99.012 C 317.373 99.458,317.355 99.873,317.416 99.934 C 317.477 99.995,317.595 99.681,317.679 99.235 C 317.763 98.789,317.781 98.374,317.720 98.313 C 317.659 98.251,317.540 98.566,317.457 99.012 M145.722 98.601 C 145.997 98.654,146.447 98.654,146.722 98.601 C 146.997 98.548,146.772 98.505,146.222 98.505 C 145.672 98.505,145.447 98.548,145.722 98.601 M144.075 99.167 C 143.364 99.692,142.524 100.661,142.056 101.498 C 141.564 102.377,141.774 102.362,142.316 101.480 C 142.972 100.413,144.219 99.111,144.586 99.111 C 144.738 99.111,144.924 99.011,145.000 98.889 C 145.235 98.509,144.783 98.644,144.075 99.167 M148.076 99.397 C 149.011 100.279,149.202 101.106,149.067 103.684 C 149.012 104.719,149.049 105.438,149.147 105.282 C 149.846 104.181,149.226 100.057,148.227 99.167 C 147.346 98.381,147.213 98.583,148.076 99.397 M203.271 98.952 C 203.207 99.120,202.820 99.422,202.411 99.623 C 201.946 99.852,201.816 99.992,202.065 99.995 C 202.506 100.001,203.721 98.980,203.517 98.776 C 203.446 98.705,203.336 98.785,203.271 98.952 M258.686 99.000 C 258.679 99.244,258.770 99.594,258.889 99.778 C 259.174 100.220,259.174 99.664,258.889 99.000 L 258.698 98.556 258.686 99.000 M352.042 99.222 C 352.048 99.467,352.129 99.967,352.222 100.333 L 352.392 101.000 352.403 100.333 C 352.408 99.967,352.327 99.467,352.222 99.222 L 352.031 98.778 352.042 99.222 M252.937 99.556 C 252.940 99.861,253.018 100.411,253.111 100.778 L 253.281 101.444 253.285 100.778 C 253.287 100.411,253.209 99.861,253.111 99.556 L 252.933 99.000 252.937 99.556 M269.889 99.333 C 269.964 99.456,270.245 99.549,270.513 99.540 C 270.983 99.525,270.984 99.517,270.556 99.333 C 269.944 99.070,269.726 99.070,269.889 99.333 M158.321 100.099 C 158.237 100.545,158.219 100.960,158.280 101.021 C 158.341 101.082,158.460 100.767,158.543 100.321 C 158.627 99.875,158.645 99.460,158.584 99.399 C 158.523 99.338,158.405 99.653,158.321 100.099 M325.481 99.481 C 325.400 99.563,325.340 99.838,325.347 100.093 C 325.360 100.518,325.379 100.513,325.574 100.023 C 325.792 99.479,325.747 99.216,325.481 99.481 M344.016 99.487 C 344.066 100.064,344.413 100.553,344.429 100.069 C 344.437 99.801,344.344 99.520,344.222 99.444 C 344.100 99.369,344.007 99.388,344.016 99.487 M153.021 100.333 C 153.206 101.436,153.334 101.613,153.330 100.759 C 153.328 100.403,153.224 99.961,153.099 99.778 C 152.937 99.539,152.915 99.696,153.021 100.333 M244.905 99.709 C 244.955 100.286,245.302 100.775,245.318 100.291 C 245.326 100.023,245.233 99.742,245.111 99.667 C 244.989 99.591,244.896 99.610,244.905 99.709 M271.444 99.778 C 271.689 99.883,272.089 99.969,272.333 99.969 L 272.778 99.969 272.333 99.778 C 272.089 99.673,271.689 99.587,271.444 99.587 L 271.000 99.587 271.444 99.778 M8.143 100.611 C 7.967 101.672,8.006 105.900,8.199 106.778 C 8.280 107.144,8.348 105.719,8.350 103.611 C 8.355 99.462,8.348 99.368,8.143 100.611 M217.920 100.611 C 217.748 101.654,217.783 105.889,217.971 106.765 C 218.048 107.125,218.111 105.700,218.111 103.599 C 218.111 99.379,218.115 99.435,217.920 100.611 M199.889 100.222 L 198.778 100.375 199.889 100.406 C 200.500 100.423,201.150 100.341,201.333 100.222 C 201.720 99.972,201.710 99.972,199.889 100.222 M273.000 100.222 C 273.076 100.344,273.406 100.443,273.735 100.441 C 274.203 100.438,274.261 100.391,274.000 100.222 C 273.561 99.938,272.825 99.938,273.000 100.222 M259.111 100.415 C 259.111 101.650,263.885 105.631,264.943 105.278 C 265.059 105.240,264.498 104.879,263.698 104.477 C 261.731 103.488,260.693 102.628,259.833 101.271 C 259.436 100.644,259.111 100.259,259.111 100.415 M317.032 101.056 C 316.848 102.165,316.898 105.497,317.111 106.333 C 317.213 106.736,317.291 105.657,317.307 103.611 C 317.334 100.144,317.274 99.588,317.032 101.056 M16.140 100.944 C 15.965 101.597,16.002 105.739,16.189 106.403 C 16.268 106.685,16.333 105.461,16.333 103.681 C 16.333 101.901,16.320 100.445,16.304 100.445 C 16.287 100.444,16.214 100.669,16.140 100.944 M161.889 101.333 C 161.804 101.839,161.784 102.302,161.845 102.363 C 161.906 102.424,162.026 102.061,162.111 101.556 C 162.196 101.050,162.216 100.587,162.155 100.526 C 162.094 100.464,161.974 100.828,161.889 101.333 M225.926 100.593 C 225.844 100.674,225.790 101.149,225.806 101.648 L 225.833 102.556 226.000 101.556 C 226.175 100.498,226.164 100.354,225.926 100.593 M274.667 100.667 C 274.850 100.785,275.200 100.877,275.444 100.870 L 275.889 100.858 275.444 100.667 C 274.780 100.381,274.225 100.381,274.667 100.667 M325.024 101.018 C 324.842 101.491,324.881 105.790,325.071 106.270 C 325.154 106.480,325.222 105.305,325.222 103.659 C 325.222 102.013,325.208 100.667,325.190 100.667 C 325.173 100.667,325.098 100.825,325.024 101.018 M344.556 103.556 C 344.556 105.121,344.629 106.287,344.719 106.145 C 344.809 106.004,344.882 104.839,344.882 103.556 C 344.882 102.272,344.809 101.107,344.719 100.966 C 344.629 100.825,344.556 101.990,344.556 103.556 M245.440 103.556 C 245.440 105.020,245.509 106.043,245.593 105.831 C 245.678 105.618,245.747 104.594,245.747 103.556 C 245.747 102.517,245.678 101.493,245.593 101.280 C 245.509 101.068,245.440 102.092,245.440 103.556 M352.528 103.556 C 352.528 104.961,352.565 105.536,352.609 104.833 C 352.653 104.131,352.653 102.981,352.609 102.278 C 352.565 101.575,352.528 102.150,352.528 103.556 M157.901 102.123 C 157.818 102.569,157.799 102.984,157.860 103.045 C 157.921 103.107,158.040 102.792,158.123 102.346 C 158.207 101.900,158.226 101.485,158.164 101.424 C 158.103 101.363,157.985 101.677,157.901 102.123 M277.130 101.424 C 277.181 101.474,277.806 101.817,278.520 102.186 C 280.535 103.230,282.115 104.719,282.880 106.298 C 283.245 107.051,283.547 107.537,283.550 107.378 C 283.556 107.073,282.967 105.789,282.431 104.936 C 281.837 103.991,278.028 101.333,277.268 101.333 C 277.141 101.333,277.079 101.374,277.130 101.424 M153.404 102.889 C 153.404 103.683,153.445 104.008,153.494 103.611 C 153.543 103.214,153.543 102.564,153.494 102.167 C 153.445 101.769,153.404 102.094,153.404 102.889 M253.411 103.333 C 253.411 104.372,253.449 104.797,253.496 104.278 C 253.543 103.758,253.543 102.908,253.496 102.389 C 253.449 101.869,253.411 102.294,253.411 103.333 M137.485 102.085 C 137.402 102.303,137.340 102.648,137.347 102.852 C 137.357 103.097,137.434 103.041,137.576 102.686 C 137.694 102.391,137.756 102.046,137.714 101.919 C 137.672 101.793,137.569 101.867,137.485 102.085 M141.444 102.889 C 141.361 103.152,141.343 103.417,141.404 103.478 C 141.465 103.539,141.583 103.374,141.667 103.111 C 141.750 102.848,141.768 102.583,141.707 102.522 C 141.646 102.461,141.528 102.626,141.444 102.889 M161.486 103.117 C 161.406 103.419,161.348 103.917,161.359 104.222 C 161.373 104.621,161.436 104.531,161.583 103.904 C 161.808 102.942,161.722 102.236,161.486 103.117 M225.616 103.556 C 225.616 104.106,225.659 104.331,225.712 104.056 C 225.765 103.781,225.765 103.331,225.712 103.056 C 225.659 102.781,225.616 103.006,225.616 103.556 M137.054 103.778 C 136.967 104.083,136.904 104.683,136.914 105.111 L 136.934 105.889 137.142 105.000 C 137.392 103.932,137.315 102.866,137.054 103.778 M157.474 104.197 C 157.389 104.732,157.365 105.217,157.423 105.275 C 157.572 105.424,157.842 103.858,157.726 103.512 C 157.673 103.353,157.560 103.661,157.474 104.197 M141.027 104.120 C 140.951 104.318,140.901 104.848,140.915 105.296 C 140.939 106.046,140.956 106.023,141.126 105.007 C 141.315 103.872,141.272 103.482,141.027 104.120 M209.935 104.417 C 210.205 104.677,210.488 104.889,210.563 104.889 C 210.743 104.889,212.000 106.146,212.000 106.326 C 212.000 106.401,212.214 106.684,212.476 106.954 L 212.952 107.444 212.532 106.702 C 212.069 105.885,210.777 104.632,209.964 104.213 L 209.444 103.945 209.935 104.417 M153.057 104.889 C 152.968 105.194,152.900 105.694,152.906 106.000 L 152.917 106.556 153.135 106.009 C 153.256 105.708,153.324 105.208,153.286 104.897 L 153.219 104.333 153.057 104.889 M225.781 105.463 C 225.783 105.942,225.882 106.483,226.002 106.667 C 226.150 106.894,226.175 106.647,226.078 105.889 C 225.903 104.503,225.777 104.323,225.781 105.463 M161.042 105.339 C 160.961 105.641,160.904 106.139,160.914 106.444 C 160.928 106.843,160.991 106.754,161.138 106.126 C 161.364 105.164,161.278 104.458,161.042 105.339 M253.022 106.403 C 252.924 107.053,252.897 107.638,252.963 107.704 C 253.137 107.878,253.387 106.372,253.286 105.751 C 253.232 105.413,253.136 105.648,253.022 106.403 M157.042 106.006 C 156.961 106.308,156.904 106.806,156.914 107.111 C 156.928 107.510,156.991 107.420,157.138 106.793 C 157.364 105.830,157.278 105.125,157.042 106.006 M148.556 106.222 C 148.472 106.485,148.454 106.750,148.515 106.811 C 148.576 106.872,148.694 106.707,148.778 106.444 C 148.861 106.182,148.879 105.917,148.818 105.855 C 148.757 105.794,148.639 105.959,148.556 106.222 M266.778 106.000 C 267.442 106.285,267.997 106.285,267.556 106.000 C 267.372 105.882,267.022 105.790,266.778 105.797 L 266.333 105.809 266.778 106.000 M136.727 106.889 C 136.727 107.439,136.771 107.664,136.823 107.389 C 136.876 107.114,136.876 106.664,136.823 106.389 C 136.771 106.114,136.727 106.339,136.727 106.889 M140.733 107.333 C 140.733 108.006,140.775 108.281,140.826 107.944 C 140.877 107.608,140.877 107.058,140.826 106.722 C 140.775 106.386,140.733 106.661,140.733 107.333 M194.321 106.508 C 194.260 106.665,194.239 108.490,194.272 110.564 L 194.333 114.333 197.389 114.343 L 200.445 114.353 197.445 114.281 L 194.444 114.210 194.444 110.438 L 194.444 106.667 197.944 106.639 C 200.455 106.619,201.162 106.561,200.444 106.433 C 198.729 106.128,194.447 106.180,194.321 106.508 M268.222 106.444 C 268.661 106.728,269.398 106.728,269.222 106.444 C 269.147 106.322,268.816 106.224,268.487 106.226 C 268.019 106.228,267.962 106.276,268.222 106.444 M352.121 107.232 C 352.036 107.799,352.017 108.313,352.078 108.374 C 352.139 108.435,352.258 108.021,352.343 107.455 C 352.428 106.888,352.448 106.374,352.387 106.313 C 352.326 106.252,352.206 106.665,352.121 107.232 M244.840 107.494 C 244.009 109.849,241.935 112.342,240.070 113.227 C 239.645 113.429,239.351 113.647,239.416 113.713 C 240.286 114.582,245.606 108.275,245.291 106.747 C 245.253 106.562,245.050 106.898,244.840 107.494 M152.571 107.238 C 152.490 107.564,152.473 107.880,152.534 107.941 C 152.595 108.002,152.712 107.786,152.794 107.460 C 152.875 107.135,152.892 106.818,152.831 106.757 C 152.770 106.696,152.653 106.912,152.571 107.238 M201.574 106.748 C 201.625 106.793,202.067 106.897,202.556 106.979 C 203.192 107.085,203.350 107.063,203.111 106.901 C 202.811 106.696,201.351 106.552,201.574 106.748 M269.889 106.889 C 270.553 107.174,271.108 107.174,270.667 106.889 C 270.483 106.770,270.133 106.679,269.889 106.686 L 269.444 106.698 269.889 106.889 M344.248 106.815 C 344.234 106.958,344.158 107.258,344.078 107.482 C 343.967 107.798,343.996 107.832,344.210 107.635 C 344.362 107.495,344.438 107.195,344.380 106.968 C 344.322 106.741,344.262 106.672,344.248 106.815 M325.333 107.142 C 325.333 109.316,330.308 114.292,332.395 114.207 C 332.606 114.198,332.422 114.060,331.988 113.900 C 329.428 112.957,327.366 111.031,326.110 108.410 C 325.683 107.519,325.333 106.948,325.333 107.142 M147.681 108.362 C 146.976 109.709,145.938 110.632,144.830 110.895 L 144.111 111.066 144.802 111.088 C 145.919 111.125,149.013 107.828,148.419 107.234 C 148.366 107.181,148.034 107.689,147.681 108.362 M160.556 107.778 C 160.471 108.162,160.452 108.526,160.513 108.587 C 160.574 108.648,160.693 108.384,160.778 108.000 C 160.862 107.616,160.881 107.252,160.820 107.190 C 160.759 107.129,160.640 107.394,160.556 107.778 M204.127 107.480 C 204.893 107.862,205.333 108.461,205.571 109.444 L 205.732 110.111 205.755 109.396 C 205.781 108.593,204.512 107.100,203.826 107.125 C 203.583 107.134,203.692 107.263,204.127 107.480 M226.230 107.280 C 226.189 108.713,228.816 112.074,230.917 113.278 C 232.208 114.018,232.282 113.876,231.018 113.083 C 229.333 112.025,227.785 110.294,226.968 108.556 C 226.567 107.700,226.235 107.126,226.230 107.280 M271.333 107.333 C 271.517 107.452,271.867 107.543,272.111 107.537 L 272.556 107.524 272.111 107.333 C 271.447 107.048,270.892 107.048,271.333 107.333 M317.371 107.444 C 317.375 107.689,317.458 108.139,317.556 108.444 L 317.733 109.000 317.740 108.444 C 317.744 108.139,317.661 107.689,317.556 107.444 L 317.365 107.000 317.371 107.444 M8.482 107.889 C 8.486 108.133,8.569 108.583,8.667 108.889 L 8.845 109.444 8.851 108.889 C 8.855 108.583,8.772 108.133,8.667 107.889 L 8.476 107.444 8.482 107.889 M212.896 107.778 C 212.896 107.961,212.993 108.261,213.111 108.444 C 213.303 108.741,213.327 108.741,213.327 108.444 C 213.327 108.261,213.230 107.961,213.111 107.778 C 212.920 107.481,212.896 107.481,212.896 107.778 M218.253 107.889 C 218.253 108.133,218.339 108.533,218.444 108.778 L 218.635 109.222 218.635 108.778 C 218.635 108.533,218.549 108.133,218.444 107.889 L 218.253 107.444 218.253 107.889 M272.691 107.654 C 272.745 107.708,273.325 108.033,273.980 108.376 C 274.770 108.790,275.311 109.261,275.586 109.774 C 275.814 110.200,276.000 110.424,276.000 110.271 C 276.000 109.899,275.523 109.073,275.111 108.734 C 274.536 108.259,272.297 107.260,272.691 107.654 M156.543 108.543 C 156.460 108.989,156.441 109.404,156.502 109.465 C 156.563 109.526,156.682 109.211,156.765 108.765 C 156.849 108.319,156.868 107.905,156.806 107.843 C 156.745 107.782,156.627 108.097,156.543 108.543 M283.667 110.667 C 283.667 112.246,283.735 113.368,283.818 113.158 C 283.901 112.949,283.969 111.828,283.969 110.667 C 283.969 109.506,283.901 108.384,283.818 108.175 C 283.735 107.966,283.667 109.087,283.667 110.667 M136.937 108.556 C 136.935 108.922,137.013 109.472,137.111 109.778 L 137.289 110.333 137.285 109.778 C 137.283 109.472,137.204 108.922,137.111 108.556 L 136.941 107.889 136.937 108.556 M252.556 108.667 C 252.471 109.051,252.452 109.415,252.513 109.476 C 252.574 109.537,252.693 109.273,252.778 108.889 C 252.862 108.505,252.881 108.140,252.820 108.079 C 252.759 108.018,252.640 108.283,252.556 108.667 M343.403 108.953 C 342.396 111.027,340.337 112.789,337.556 113.959 C 337.223 114.098,337.142 114.198,337.353 114.207 C 338.011 114.235,340.498 112.830,341.419 111.910 C 342.892 110.438,344.106 108.651,343.950 108.184 C 343.911 108.067,343.665 108.414,343.403 108.953 M16.889 108.401 C 16.889 109.513,21.361 113.824,21.928 113.258 C 21.987 113.198,21.653 112.970,21.185 112.750 C 20.096 112.241,17.986 110.136,17.480 109.056 C 17.107 108.259,16.889 108.017,16.889 108.401 M151.664 109.431 C 151.331 110.110,150.982 110.667,150.889 110.667 C 150.795 110.667,150.673 110.842,150.616 111.057 C 150.461 111.652,148.126 113.350,146.824 113.816 C 145.983 114.117,145.869 114.200,146.407 114.117 C 148.533 113.792,153.262 109.188,152.379 108.304 C 152.318 108.244,151.996 108.751,151.664 109.431 M140.893 108.836 C 140.882 109.621,142.263 111.111,143.000 111.110 C 143.319 111.110,143.225 111.000,142.670 110.722 C 142.230 110.501,141.680 109.950,141.396 109.444 C 141.121 108.956,140.895 108.682,140.893 108.836 M351.667 109.111 C 351.583 109.374,351.565 109.639,351.626 109.700 C 351.687 109.761,351.805 109.596,351.889 109.333 C 351.972 109.070,351.991 108.805,351.929 108.744 C 351.868 108.683,351.750 108.848,351.667 109.111 M160.141 109.752 C 160.055 110.288,160.032 110.773,160.089 110.830 C 160.239 110.979,160.508 109.414,160.393 109.068 C 160.340 108.909,160.227 109.217,160.141 109.752 M213.419 111.333 C 213.419 112.739,213.490 113.639,213.576 113.333 C 213.663 113.028,213.733 112.128,213.733 111.333 C 213.733 110.539,213.663 109.639,213.576 109.333 C 213.490 109.028,213.419 109.928,213.419 111.333 M317.785 109.333 C 317.785 109.517,317.882 109.817,318.000 110.000 C 318.191 110.296,318.215 110.296,318.215 110.000 C 318.215 109.817,318.118 109.517,318.000 109.333 C 317.809 109.037,317.785 109.037,317.785 109.333 M218.673 109.556 C 218.673 109.739,218.770 110.039,218.889 110.222 C 219.080 110.519,219.104 110.519,219.104 110.222 C 219.104 110.039,219.007 109.739,218.889 109.556 C 218.697 109.259,218.673 109.259,218.673 109.556 M33.293 110.762 C 32.599 111.417,31.470 112.227,30.786 112.561 C 29.452 113.214,29.211 113.554,30.466 113.013 C 31.596 112.526,32.975 111.536,33.657 110.722 C 33.989 110.325,34.435 110.000,34.647 110.000 C 35.166 110.000,39.111 114.076,39.111 114.613 C 39.111 115.222,35.260 118.652,34.556 118.671 C 34.304 118.677,33.140 119.543,33.373 119.551 C 34.140 119.576,39.381 115.521,39.521 114.795 C 39.590 114.434,35.049 109.537,34.670 109.564 C 34.607 109.568,33.987 110.107,33.293 110.762 M261.125 109.833 C 260.350 110.786,259.077 112.338,258.167 113.438 C 257.586 114.140,257.111 114.834,257.111 114.979 C 257.111 115.863,263.229 120.019,264.494 119.994 C 264.650 119.991,264.028 119.607,263.111 119.140 C 260.769 117.948,260.486 117.779,259.111 116.756 C 256.945 115.143,256.936 115.063,258.722 113.139 C 259.181 112.645,259.556 112.181,259.556 112.106 C 259.556 111.857,261.442 109.778,261.667 109.779 C 261.789 109.779,262.189 110.059,262.556 110.400 C 263.924 111.673,267.598 113.788,268.408 113.769 C 268.611 113.764,268.278 113.537,267.667 113.263 C 265.751 112.408,264.749 111.823,263.228 110.671 C 261.647 109.475,261.473 109.405,261.125 109.833 M156.123 110.568 C 156.040 111.014,156.021 111.429,156.082 111.490 C 156.144 111.551,156.262 111.236,156.346 110.790 C 156.429 110.344,156.448 109.929,156.387 109.868 C 156.326 109.807,156.207 110.122,156.123 110.568 M351.014 110.928 C 349.603 114.164,346.293 117.540,342.977 119.122 C 342.176 119.504,341.573 119.870,341.638 119.934 C 341.843 120.140,344.987 118.321,346.415 117.170 C 348.558 115.443,351.787 111.027,351.511 110.199 C 351.468 110.072,351.245 110.399,351.014 110.928 M137.333 110.617 C 137.333 111.668,141.149 114.703,141.735 114.117 C 141.793 114.059,141.652 113.949,141.421 113.873 C 140.098 113.442,139.646 113.167,138.759 112.254 C 138.219 111.699,137.778 111.121,137.778 110.969 C 137.778 110.817,137.678 110.631,137.556 110.556 C 137.433 110.480,137.333 110.508,137.333 110.617 M318.222 110.532 C 318.222 112.048,324.535 119.317,325.239 118.613 C 325.299 118.553,325.069 118.324,324.729 118.104 C 324.389 117.884,323.949 117.520,323.752 117.296 C 323.554 117.072,323.324 116.889,323.241 116.889 C 323.006 116.889,320.889 114.715,320.889 114.474 C 320.889 114.356,320.801 114.226,320.694 114.185 C 320.412 114.078,318.667 111.318,318.667 110.979 C 318.667 110.821,318.567 110.631,318.444 110.556 C 318.322 110.480,318.222 110.469,318.222 110.532 M219.111 110.802 C 219.111 112.049,223.158 116.768,225.586 118.353 C 227.277 119.457,227.942 119.779,227.690 119.371 C 227.602 119.228,227.431 119.111,227.310 119.111 C 225.938 119.111,221.160 114.433,219.877 111.833 C 219.350 110.767,219.111 110.445,219.111 110.802 M205.581 111.222 C 205.495 112.653,204.065 113.699,201.778 114.002 L 200.556 114.164 201.556 114.190 C 203.825 114.248,206.081 112.624,205.714 111.196 C 205.615 110.807,205.605 110.809,205.581 111.222 M251.509 111.486 C 251.088 112.319,250.582 113.196,250.443 113.333 C 250.381 113.394,250.046 113.827,249.697 114.294 C 248.892 115.374,247.822 116.444,246.739 117.254 C 246.271 117.603,245.756 118.015,245.593 118.168 C 245.431 118.322,244.652 118.760,243.862 119.141 C 243.072 119.522,242.472 119.880,242.529 119.937 C 243.011 120.418,247.717 117.010,249.463 114.915 C 250.738 113.386,252.130 111.167,251.936 110.973 C 251.874 110.911,251.682 111.142,251.509 111.486 M159.724 111.556 C 159.635 111.861,159.567 112.361,159.573 112.667 L 159.584 113.222 159.802 112.675 C 159.922 112.374,159.990 111.874,159.953 111.564 L 159.886 111.000 159.724 111.556 M10.025 112.278 C 11.662 115.391,16.987 120.012,18.921 119.998 C 19.087 119.997,18.397 119.587,17.389 119.088 C 16.381 118.589,15.556 118.090,15.556 117.979 C 15.556 117.868,15.426 117.778,15.267 117.778 C 14.782 117.778,11.920 114.805,10.905 113.247 C 9.960 111.797,9.513 111.305,10.025 112.278 M155.724 112.222 C 155.635 112.528,155.567 113.028,155.573 113.333 L 155.584 113.889 155.802 113.342 C 155.922 113.041,155.990 112.541,155.953 112.231 L 155.886 111.667 155.724 112.222 M275.560 112.322 C 275.324 112.942,274.592 113.476,273.387 113.906 C 272.844 114.100,272.717 114.206,273.021 114.212 C 273.979 114.233,276.000 112.720,276.000 111.983 C 276.000 111.598,275.767 111.777,275.560 112.322 M22.328 113.547 C 22.406 113.674,22.731 113.778,23.050 113.778 C 23.747 113.778,23.666 113.671,22.815 113.467 C 22.402 113.368,22.234 113.395,22.328 113.547 M28.111 113.556 C 27.736 113.717,27.778 113.749,28.376 113.762 C 28.766 113.771,29.147 113.678,29.222 113.556 C 29.387 113.289,28.731 113.289,28.111 113.556 M159.264 113.784 C 159.183 114.086,159.126 114.583,159.136 114.889 C 159.150 115.288,159.213 115.198,159.361 114.570 C 159.586 113.608,159.500 112.903,159.264 113.784 M24.592 114.054 C 25.212 114.204,25.872 114.203,26.592 114.054 C 27.615 113.841,27.571 113.830,25.667 113.831 C 23.861 113.831,23.757 113.853,24.592 114.054 M232.444 114.000 C 232.628 114.118,232.978 114.210,233.222 114.203 L 233.667 114.191 233.222 114.000 C 232.558 113.715,232.003 113.715,232.444 114.000 M238.333 114.000 C 237.905 114.184,237.906 114.192,238.376 114.207 C 238.644 114.215,238.924 114.122,239.000 114.000 C 239.162 113.737,238.945 113.737,238.333 114.000 M269.013 114.021 C 269.081 114.132,269.548 114.222,270.050 114.222 C 271.178 114.222,271.085 114.100,269.833 113.941 C 269.294 113.872,268.942 113.906,269.013 114.021 M283.359 113.926 C 283.345 114.069,283.269 114.369,283.190 114.593 C 283.078 114.909,283.108 114.943,283.321 114.746 C 283.473 114.606,283.549 114.306,283.491 114.079 C 283.433 113.852,283.373 113.783,283.359 113.926 M155.210 114.765 C 155.126 115.211,155.108 115.626,155.169 115.687 C 155.230 115.749,155.348 115.434,155.432 114.988 C 155.516 114.542,155.534 114.127,155.473 114.066 C 155.412 114.005,155.294 114.319,155.210 114.765 M213.000 114.444 C 212.917 114.707,212.898 114.972,212.959 115.033 C 213.021 115.095,213.139 114.930,213.222 114.667 C 213.306 114.404,213.324 114.139,213.263 114.078 C 213.202 114.017,213.083 114.182,213.000 114.444 M142.833 114.385 C 143.353 114.432,144.203 114.432,144.722 114.385 C 145.242 114.338,144.817 114.300,143.778 114.300 C 142.739 114.300,142.314 114.338,142.833 114.385 M234.111 114.453 C 234.356 114.553,235.106 114.635,235.778 114.635 C 236.450 114.635,237.200 114.553,237.444 114.453 C 237.721 114.339,237.092 114.270,235.778 114.270 C 234.463 114.270,233.834 114.339,234.111 114.453 M271.389 114.375 C 271.603 114.431,271.953 114.431,272.167 114.375 C 272.381 114.320,272.206 114.274,271.778 114.274 C 271.350 114.274,271.175 114.320,271.389 114.375 M333.222 114.453 C 333.761 114.674,335.420 114.674,336.333 114.452 C 336.763 114.348,336.251 114.287,334.889 114.281 C 333.584 114.274,332.948 114.340,333.222 114.453 M282.742 115.458 C 282.519 116.040,282.058 116.608,280.727 117.944 C 280.088 118.586,279.648 119.111,279.749 119.111 C 280.259 119.111,283.313 115.461,283.035 115.183 C 282.961 115.109,282.828 115.232,282.742 115.458 M212.111 116.278 C 211.378 117.402,209.877 118.845,209.136 119.137 C 208.844 119.252,208.666 119.407,208.741 119.482 C 209.151 119.892,211.794 117.417,212.638 115.833 C 213.078 115.007,212.768 115.269,212.111 116.278 M158.778 116.222 C 158.693 116.606,158.674 116.971,158.735 117.032 C 158.797 117.093,158.916 116.829,159.000 116.444 C 159.084 116.060,159.103 115.696,159.042 115.635 C 158.981 115.574,158.862 115.838,158.778 116.222 M154.482 117.123 C 153.820 118.566,153.065 118.971,151.419 118.765 L 150.203 118.613 150.268 120.360 C 150.326 121.910,150.383 122.114,150.778 122.172 C 151.184 122.233,151.189 122.218,150.833 121.997 C 150.534 121.811,150.444 121.453,150.444 120.433 L 150.444 119.111 151.750 119.111 C 153.229 119.111,154.314 118.358,154.880 116.937 C 155.345 115.772,155.036 115.916,154.482 117.123 M158.333 117.778 C 158.250 118.041,158.232 118.306,158.293 118.367 C 158.354 118.428,158.472 118.263,158.556 118.000 C 158.639 117.737,158.657 117.472,158.596 117.411 C 158.535 117.350,158.417 117.515,158.333 117.778 M157.337 119.772 C 156.574 120.962,155.864 121.565,154.778 121.951 C 154.373 122.094,154.268 122.194,154.511 122.205 C 155.083 122.230,156.019 121.696,156.686 120.964 C 157.488 120.085,158.292 118.884,158.164 118.757 C 158.105 118.698,157.733 119.155,157.337 119.772 M325.556 118.772 C 325.556 118.830,325.881 119.036,326.278 119.230 L 327.000 119.582 326.444 119.129 C 325.910 118.693,325.556 118.551,325.556 118.772 M19.444 120.222 C 19.520 120.344,19.801 120.437,20.069 120.429 C 20.538 120.414,20.540 120.406,20.111 120.222 C 19.499 119.959,19.282 119.959,19.444 120.222 M31.111 120.222 C 30.815 120.414,30.815 120.438,31.111 120.438 C 31.294 120.438,31.594 120.341,31.778 120.222 C 32.074 120.031,32.074 120.007,31.778 120.007 C 31.594 120.007,31.294 120.104,31.111 120.222 M205.889 120.222 L 205.222 120.392 205.889 120.403 C 206.256 120.408,206.756 120.327,207.000 120.222 L 207.444 120.031 207.000 120.042 C 206.756 120.048,206.256 120.129,205.889 120.222 M229.444 120.222 C 230.056 120.485,230.274 120.485,230.111 120.222 C 230.036 120.100,229.755 120.007,229.487 120.016 C 229.017 120.031,229.016 120.038,229.444 120.222 M241.222 120.222 L 240.778 120.413 241.222 120.425 C 241.467 120.432,241.817 120.341,242.000 120.222 C 242.442 119.937,241.887 119.937,241.222 120.222 M265.111 120.222 C 265.294 120.341,265.644 120.432,265.889 120.425 L 266.333 120.413 265.889 120.222 C 265.225 119.937,264.669 119.937,265.111 120.222 M276.889 120.222 C 276.593 120.414,276.593 120.438,276.889 120.438 C 277.072 120.438,277.372 120.341,277.556 120.222 C 277.852 120.031,277.852 120.007,277.556 120.007 C 277.372 120.007,277.072 120.104,276.889 120.222 M328.556 120.222 C 329.167 120.485,329.385 120.485,329.222 120.222 C 329.147 120.100,328.866 120.007,328.598 120.016 C 328.129 120.031,328.127 120.038,328.556 120.222 M340.333 120.222 L 339.889 120.413 340.333 120.425 C 340.578 120.432,340.928 120.341,341.111 120.222 C 341.553 119.937,340.998 119.937,340.333 120.222 M21.000 120.667 C 21.244 120.772,21.744 120.853,22.111 120.847 L 22.778 120.836 22.111 120.667 C 21.744 120.573,21.244 120.492,21.000 120.486 L 20.556 120.476 21.000 120.667 M29.333 120.667 L 28.778 120.845 29.333 120.851 C 29.639 120.855,30.089 120.772,30.333 120.667 L 30.778 120.476 30.333 120.482 C 30.089 120.486,29.639 120.569,29.333 120.667 M45.333 120.667 C 45.333 120.806,46.741 120.889,49.111 120.889 C 51.481 120.889,52.889 120.806,52.889 120.667 C 52.889 120.527,51.481 120.444,49.111 120.444 C 46.741 120.444,45.333 120.527,45.333 120.667 M186.667 120.667 C 186.667 120.936,202.715 120.946,204.222 120.678 C 204.807 120.574,201.369 120.489,195.944 120.472 C 189.889 120.454,186.667 120.522,186.667 120.667 M230.778 120.667 C 231.022 120.772,231.522 120.858,231.889 120.858 C 232.457 120.858,232.490 120.829,232.111 120.667 C 231.867 120.562,231.367 120.476,231.000 120.476 C 230.432 120.476,230.399 120.504,230.778 120.667 M239.222 120.667 L 238.556 120.836 239.222 120.847 C 239.589 120.853,240.089 120.772,240.333 120.667 L 240.778 120.476 240.333 120.486 C 240.089 120.492,239.589 120.573,239.222 120.667 M266.778 120.667 C 267.022 120.772,267.522 120.853,267.889 120.847 L 268.556 120.836 267.889 120.667 C 267.522 120.573,267.022 120.492,266.778 120.486 L 266.333 120.476 266.778 120.667 M275.111 120.667 L 274.556 120.845 275.111 120.851 C 275.417 120.855,275.867 120.772,276.111 120.667 L 276.556 120.476 276.111 120.482 C 275.867 120.486,275.417 120.569,275.111 120.667 M297.333 120.667 C 297.333 120.806,298.741 120.889,301.111 120.889 C 303.481 120.889,304.889 120.806,304.889 120.667 C 304.889 120.527,303.481 120.444,301.111 120.444 C 298.741 120.444,297.333 120.527,297.333 120.667 M329.889 120.667 C 330.133 120.772,330.633 120.858,331.000 120.858 C 331.568 120.858,331.601 120.829,331.222 120.667 C 330.978 120.562,330.478 120.476,330.111 120.476 C 329.543 120.476,329.510 120.504,329.889 120.667 M338.556 120.667 L 338.111 120.858 338.556 120.858 C 338.800 120.858,339.200 120.772,339.444 120.667 L 339.889 120.476 339.444 120.476 C 339.200 120.476,338.800 120.562,338.556 120.667 M359.111 120.667 C 359.111 120.806,360.519 120.889,362.889 120.889 C 365.259 120.889,366.667 120.806,366.667 120.667 C 366.667 120.527,365.259 120.444,362.889 120.444 C 360.519 120.444,359.111 120.527,359.111 120.667 M24.278 121.138 C 25.127 121.248,26.429 121.248,27.278 121.138 C 28.628 120.964,28.479 120.945,25.778 120.945 C 23.077 120.945,22.927 120.964,24.278 121.138 M234.056 121.138 C 234.905 121.248,236.206 121.248,237.056 121.138 C 238.406 120.964,238.257 120.945,235.556 120.945 C 232.854 120.945,232.705 120.964,234.056 121.138 M270.254 121.155 C 271.307 121.283,272.446 121.282,273.254 121.152 C 274.401 120.967,274.199 120.943,271.556 120.945 C 268.632 120.948,268.599 120.954,270.254 121.155 M333.119 121.133 C 333.917 121.236,335.367 121.237,336.341 121.134 C 337.988 120.961,337.887 120.948,334.889 120.947 C 332.141 120.945,331.880 120.973,333.119 121.133 M151.944 122.383 C 152.342 122.432,152.992 122.432,153.389 122.383 C 153.786 122.334,153.461 122.293,152.667 122.293 C 151.872 122.293,151.547 122.334,151.944 122.383 " stroke="none" fill="#8c949c" fill-rule="evenodd"></path></g></svg>